<svg width="24" height="24" viewBox="0 0 24 24" fill="none" xmlns="http://www.w3.org/2000/svg">
<g id="home-181">
<path id="Vector" d="M23.9715 11.0714C23.9715 11.6134 23.5397 12.0528 23.0073 12.0528C22.7181 12.0528 22.4617 11.9206 22.285 11.7154L14.1675 3.45343C13.791 3.07014 13.1805 3.07014 12.804 3.45343L7.05922 9.3005C7.12667 9.4326 7.1683 9.58003 7.1683 9.73856V13.6169C7.1683 13.6246 7.16621 13.6318 7.16602 13.6394H7.173V17.4598C7.173 18.0018 7.60675 18.4412 8.14185 18.4412H10.0771V14.5865C10.0771 14.0509 10.5111 13.6169 11.0466 13.6169H15.8945C16.4301 13.6169 16.8641 14.0509 16.8641 14.5865C16.8641 15.1219 16.4301 15.5561 15.8945 15.5561H12.0162V19.4343C12.0162 19.96 11.5973 20.3855 11.0754 20.4011V20.4039H7.65328C6.31463 20.4039 5.22941 19.3055 5.22941 17.9505V13.6394H5.2314C5.23126 13.6318 5.22912 13.6246 5.22912 13.6169V11.1632L4.68625 11.7158C4.50949 11.9207 4.25322 12.0528 3.96419 12.0528C3.43171 12.0528 3 11.6134 3 11.0714C3 10.7934 3.11474 10.5435 3.29737 10.3649L3.29181 10.3593L11.7812 1.71861C12.7226 0.760462 14.2489 0.760462 15.1902 1.71861L23.6645 10.3439L23.6575 10.351C23.8492 10.5304 23.9715 10.7855 23.9715 11.0714ZM15.8936 18.4412C15.9039 18.4412 15.9136 18.444 15.9239 18.4443V18.4412H18.7993C19.3343 18.4412 19.7681 18.0018 19.7681 17.4598V13.6394H19.7807C19.7803 13.6278 19.7773 13.6169 19.7773 13.6051C19.7773 13.0631 20.2089 12.6237 20.7414 12.6237C21.2739 12.6237 21.7056 13.0631 21.7056 13.6051C21.7056 13.6169 21.7026 13.6278 21.7022 13.6394H21.7117V17.9505C21.7117 19.3055 20.6265 20.4039 19.2878 20.4039H15.9239V20.4008C15.9135 20.4012 15.9039 20.4039 15.8935 20.4039C15.361 20.4039 14.9293 19.9646 14.9293 19.4226C14.9294 18.8806 15.3611 18.4412 15.8936 18.4412Z" fill="#00A9AB" fill-opacity="0.2"/>
<path id="Vector_2" d="M22.4857 12.3694C22.4857 12.9115 22.054 13.3508 21.5215 13.3508C21.2324 13.3508 20.976 13.2186 20.7992 13.0135L12.6818 4.75146C12.3052 4.36818 11.6948 4.36818 11.3182 4.75146L5.57349 10.5985C5.64093 10.7306 5.68257 10.8781 5.68257 11.0366V14.9149C5.68257 14.9226 5.68048 14.9298 5.68029 14.9375H5.68727V18.7579C5.68727 19.2999 6.12102 19.7392 6.65612 19.7392H8.59132V15.8845C8.59132 15.3489 9.0254 14.9149 9.56091 14.9149H14.4088C14.9443 14.9149 15.3784 15.3489 15.3784 15.8845C15.3784 16.42 14.9443 16.8541 14.4088 16.8541H10.5305V20.7324C10.5305 21.258 10.1115 21.6835 9.58964 21.6991V21.7019H6.16754C4.82889 21.7019 3.74368 20.6036 3.74368 19.2486V14.9375H3.74567C3.74552 14.9298 3.74339 14.9226 3.74339 14.9149V12.4613L3.20052 13.0138C3.02376 13.2188 2.76749 13.3508 2.47846 13.3508C1.94597 13.3508 1.51427 12.9115 1.51427 12.3694C1.51427 12.0914 1.62901 11.8416 1.81164 11.663L1.80608 11.6573L10.2955 3.01665C11.2369 2.0585 12.7631 2.0585 13.7045 3.01665L22.1788 11.6419L22.1718 11.6491C22.3635 11.8284 22.4857 12.0835 22.4857 12.3694ZM14.4078 19.7392C14.4182 19.7392 14.4279 19.742 14.4382 19.7423V19.7392H17.3136C17.8486 19.7392 18.2824 19.2999 18.2824 18.7578V14.9375H18.2949C18.2945 14.9258 18.2915 14.9149 18.2915 14.9031C18.2915 14.3611 18.7232 13.9217 19.2557 13.9217C19.7882 13.9217 20.2199 14.3611 20.2199 14.9031C20.2199 14.9149 20.2169 14.9258 20.2165 14.9375H20.2259V19.2486C20.2259 20.6035 19.1408 21.7019 17.8021 21.7019H14.4381V21.6989C14.4278 21.6992 14.4181 21.7019 14.4078 21.7019C13.8753 21.7019 13.4436 21.2626 13.4436 20.7206C13.4436 20.1786 13.8753 19.7392 14.4078 19.7392Z" fill="#00A9AB"/>
</g>
</svg>
