<svg width="45" height="54" viewBox="0 0 45 54" fill="none" xmlns="http://www.w3.org/2000/svg">
<g id="Group 3">
<path id="Vector" d="M27.6337 5.0493C27.0329 6.2774 26.2707 6.36502 26.2095 7.2023C26.1483 8.03957 26.8298 8.25376 26.8061 8.9909C26.8061 9.4916 26.4501 10.226 24.7881 11.098L16.8006 8.76141C16.4668 8.61538 16.1802 8.40536 15.941 8.13276C15.7004 7.86016 15.5279 7.55 15.425 7.2023C15.1719 6.11189 15.9619 5.1258 16.617 4.68212C17.5808 4.02844 18.1483 4.60285 19.1441 4.08685C20.5641 3.34415 20.0203 1.81981 21.3917 0.740526C22.6824 -0.271995 24.7575 -0.176028 26.1636 0.604225C26.496 0.786423 27.7825 1.50548 28.0468 2.8518C28.1539 3.63066 28.0162 4.36223 27.6337 5.0493Z" fill="#333333"/>
<path id="Vector_2" d="M21.7059 50.9493C20.9007 50.5473 20.2122 50.2261 20.2122 50.2261C20.2122 50.2261 22.0383 37.6099 22.0884 36.9534C22.0703 35.9868 22.0022 35.0257 21.8854 34.0661L17.4208 33.7643L18.0439 36.3456L18.3819 50.3262C18.1691 50.7017 17.9994 51.0953 17.8728 51.507C18.5223 51.6809 19.1802 51.7198 19.8464 51.6224C20.5126 51.5251 21.1315 51.3012 21.7059 50.9493Z" fill="#FDAFA0"/>
<path id="Vector_3" d="M21.7058 50.9493C21.1328 51.2998 20.5139 51.5237 19.8477 51.621C19.1828 51.7184 18.525 51.6809 17.8755 51.507C17.7461 51.9465 17.7155 52.3179 17.8755 52.4555C18.1828 52.7073 24.2218 52.8102 24.2218 52.4555C24.2218 52.2483 22.8463 51.5181 21.7058 50.9493Z" fill="#F35F65"/>
<path id="Vector_4" d="M10.7224 35.1287L2.0951 44.0453C1.61109 44.1273 1.13404 44.2386 0.662552 44.3777C0.94628 45.1232 1.3524 45.7963 1.87952 46.3958C2.40665 46.9966 3.02278 47.4862 3.72654 47.8645C3.63475 46.5641 3.46646 45.1607 3.46646 45.1607C3.46646 45.1607 13.5638 37.8172 14.123 37.1065C14.6821 36.3944 14.7822 34.1704 14.7822 34.1704L10.7224 35.1287Z" fill="#FDAFA0"/>
<path id="Vector_5" d="M0.662675 44.3776C0.419281 44.4318 0.203703 44.5403 0.0159416 44.7058C-0.237188 45.0577 2.60427 49.3665 2.8574 49.7184C3.11053 50.0702 3.3122 50.1773 3.66825 50.0244C3.82958 49.9548 3.80316 48.9451 3.72666 47.8644C3.02291 47.4861 2.40677 46.9965 1.87965 46.3957C1.35252 45.7962 0.946403 45.1231 0.662675 44.3776Z" fill="#F35F65"/>
<path id="Vector_6" d="M13.5527 18.2204C12.7864 18.92 11.4957 20.2232 11.1675 21.3428C10.6876 22.9714 8.67372 35.2176 8.67372 35.2176C9.35383 35.6836 10.0868 36.0424 10.8726 36.2941C11.6584 36.5473 12.4637 36.6822 13.2885 36.7003C15.8198 36.7003 17.2329 35.3581 20.0813 35.7072C20.9478 35.8157 21.7767 36.0521 22.5708 36.4137C22.6849 32.977 22.5361 29.5514 22.123 26.1369C21.8782 24.123 21.5555 22.2343 21.1884 20.4791C19.8337 20.4735 18.5069 20.2788 17.2092 19.8949C15.9102 19.5111 14.6918 18.9519 13.5527 18.2204Z" fill="#176FB5"/>
<path id="Vector_7" d="M11.2439 31.3219C12.8726 32.4012 14.6598 33.0452 16.6042 33.2566C17.657 33.3637 20.6751 33.6655 21.5138 32.2232C22.0618 31.2913 21.3761 30.1676 20.817 28.5918C20.3719 27.2802 20.0812 25.9353 19.9449 24.557C19.8086 23.1787 19.8295 21.8031 20.0089 20.4304C18.8531 20.3233 17.728 20.0813 16.632 19.703C15.5541 19.3247 14.5332 18.8295 13.568 18.2204C13.472 18.3038 13.3719 18.3998 13.2648 18.5027C12.963 18.7934 12.9435 18.8045 12.9324 18.8323C12.7947 19.1453 13.7446 19.6696 14.1077 20.1773C14.874 21.2857 13.5986 23.3052 12.7947 25.0674C11.9018 27.0591 11.3844 29.1439 11.2439 31.3219Z" fill="#10446D"/>
<path id="Vector_8" d="M25.3054 9.81708C24.6378 9.41513 23.9522 9.04934 23.2484 8.71555L19.8826 7.90191C19.8826 7.90191 16.5168 7.79899 16.0537 8.1161C15.5905 8.43321 13.5029 10.4096 13.5029 10.4096C13.8284 10.7169 14.119 11.0535 14.3722 11.4221C14.7018 11.9075 14.9577 12.429 15.1385 12.9868C14.9424 13.5556 14.7546 14.1829 14.5947 14.8672C14.3708 15.8018 14.2164 16.7476 14.1316 17.7044C14.1316 17.7044 13.8895 17.8992 13.5446 18.2163C14.6837 18.9478 15.9021 19.507 17.2011 19.8908C18.5001 20.2747 19.827 20.4708 21.1803 20.4764C21.158 20.3568 21.1344 20.2385 21.1079 20.1245C21.706 19.2302 22.2568 18.3067 22.7588 17.3567C23.3722 16.1982 23.9091 15.0076 24.3708 13.7809C24.425 13.5445 24.5099 13.3192 24.6253 13.105C24.7408 12.8908 24.8826 12.6961 25.0509 12.5208C25.2192 12.3442 25.4084 12.1954 25.6184 12.0716C25.8284 11.9464 26.0509 11.8532 26.286 11.7893C26.6587 11.7183 27.0259 11.7448 27.3847 11.8699C27.3847 11.8699 25.592 10.0535 25.3054 9.81708Z" fill="#FFCA40"/>
<path id="Vector_9" d="M30.1957 43.2844C30.1136 43.2831 30.0413 43.2594 29.9746 43.2135C29.9092 43.1662 29.8619 43.1036 29.8355 43.0271L18.2402 9.89352C18.2235 9.84484 18.2165 9.79616 18.2193 9.7447C18.2221 9.69324 18.2346 9.64595 18.2569 9.59866C18.2791 9.55277 18.3097 9.51382 18.3473 9.47905C18.3862 9.44567 18.4293 9.42064 18.478 9.40395C18.5253 9.38726 18.5754 9.38169 18.6254 9.38448C18.6755 9.38726 18.7242 9.39977 18.7701 9.42203C18.816 9.44428 18.8549 9.47488 18.8883 9.51243C18.9217 9.54998 18.9467 9.5931 18.9634 9.64178L30.5559 42.7754C30.5726 42.8227 30.5782 42.8714 30.5754 42.9228C30.5726 42.9729 30.5601 43.0202 30.5392 43.0661C30.517 43.112 30.4878 43.1509 30.4502 43.1843C30.4127 43.2191 30.3695 43.2441 30.3223 43.2608C30.2805 43.2761 30.2388 43.2831 30.1957 43.2844Z" fill="#176FB5"/>
<path id="Vector_10" d="M29.9257 41.0967L29.1023 41.3887C29.0355 41.4124 28.966 41.4235 28.8951 41.4193C28.8241 41.4152 28.7574 41.3985 28.692 41.3679C28.628 41.3373 28.5724 41.2955 28.5251 41.2441C28.4778 41.1912 28.4416 41.1314 28.418 41.0647L28.0967 40.1634C28.0731 40.0967 28.0633 40.0285 28.0661 39.9576C28.0703 39.8866 28.087 39.8185 28.1176 39.7545C28.1482 39.6905 28.1899 39.6349 28.2428 39.5876C28.2956 39.5389 28.3554 39.5042 28.4222 39.4805L29.2455 39.1884C29.3123 39.1648 29.3818 39.1537 29.4528 39.1578C29.5237 39.162 29.5905 39.1787 29.6544 39.2093C29.7198 39.2399 29.7754 39.2816 29.8227 39.3331C29.87 39.3859 29.9062 39.4457 29.9298 39.5125L30.2511 40.4138C30.2748 40.4805 30.2845 40.5501 30.2803 40.6196C30.2775 40.6905 30.2608 40.7587 30.2302 40.8227C30.1996 40.8866 30.1579 40.9423 30.1051 40.9896C30.0522 41.0382 29.9924 41.073 29.9257 41.0967Z" fill="#FD9230"/>
<path id="Vector_11" d="M27.9199 52.6113C27.9199 52.6113 28.3038 52.4667 28.6167 52.3638C28.931 52.2608 28.4025 48.5904 28.4025 48.5904C28.728 49.5042 29.0965 52.1955 29.0965 52.1955L29.9046 51.909L29.2648 49.3165C29.5374 50.1843 29.9477 50.9827 30.4943 51.7101L31.2982 51.4236C31.5277 51.1357 30.4943 46.9075 30.4943 46.9075L32.0256 51.1704L32.9324 50.8464C33.3844 50.685 32.7266 47.7573 32.7266 47.7573C33.3664 48.7351 33.7252 50.5626 33.7252 50.5626L34.6445 50.2386L33.4693 46.2427L35.3845 49.9785L36.5973 49.5459L36.0228 48.3985L36.881 49.4472L37.5166 49.2205C36.479 48.7393 34.454 44.6335 34.454 44.6335L33.8949 43.0619C33.8476 42.9395 33.7989 42.8171 33.7447 42.7031C33.6918 42.5876 33.6334 42.4889 33.5806 42.3888C33.5263 42.29 33.4039 42.1175 33.3052 42.0063C33.2328 41.9145 33.1564 41.8269 33.0743 41.7434C32.8434 41.4931 32.5819 41.2817 32.2899 41.1078C31.9964 40.934 31.6849 40.8046 31.3552 40.7225C31.0256 40.6391 30.6904 40.6043 30.3497 40.6182C30.0089 40.6335 29.6779 40.6961 29.3566 40.806C28.9143 40.9659 28.5221 41.2052 28.1786 41.5237C27.8351 41.8436 27.5666 42.2177 27.3761 42.6461C27.2648 42.8908 27.1828 43.1454 27.1271 43.4096C27.1035 43.5278 27.0854 43.6461 27.0743 43.7657C27.0743 43.8992 27.0743 44.0299 27.0506 44.1482C27.0506 44.2705 27.0506 44.3888 27.0784 44.507C27.109 44.8088 27.1758 45.1009 27.2773 45.386L27.7252 46.6475C28.3914 49.0953 27.9199 52.6113 27.9199 52.6113Z" fill="#FD9230"/>
<path id="Vector_12" d="M27.0702 43.7727C28.0048 44.1551 29.0813 43.8728 29.9812 43.5891C31.1703 43.2219 32.283 42.6906 33.3164 41.9952C33.244 41.9034 33.1676 41.8158 33.0869 41.7323C32.1328 42.3652 31.1119 42.8589 30.0229 43.2108C29.1383 43.4973 28.0354 43.8533 27.1272 43.418C27.1022 43.5348 27.0827 43.6531 27.0702 43.7727Z" fill="#10446D"/>
<path id="Vector_13" d="M27.0746 44.5334C27.5684 44.6628 28.0705 44.7407 28.5795 44.7671C29.2193 44.7796 29.8313 44.6517 30.414 44.3846C31.5559 43.8839 32.6644 43.3193 33.7409 42.6906C33.6922 42.5849 33.631 42.4778 33.5768 42.3777C32.5378 42.9827 31.4697 43.5307 30.3709 44.0216C29.7937 44.2887 29.1859 44.4166 28.5489 44.4041C28.0399 44.3763 27.5392 44.2942 27.0482 44.1593C27.0552 44.297 27.0593 44.4152 27.0746 44.5334Z" fill="#10446D"/>
<path id="Vector_14" d="M27.4111 11.874C27.4111 11.874 32.0912 17.0159 32.0912 17.7725C32.0912 18.5291 26.3777 24.8755 26.3777 24.8755C26.3777 24.8755 24.4626 26.0841 24.0801 26.0841C23.6962 26.0841 22.5474 24.6126 22.8311 24.3442C23.1148 24.0771 23.5975 23.5528 23.9299 23.6682C24.4834 23.742 25.0384 23.7656 25.5961 23.7406L29.2261 17.9214L24.3777 13.785C24.4014 13.5639 24.4556 13.3497 24.539 13.1425C24.6225 12.9366 24.7338 12.7447 24.8715 12.5695C25.0091 12.3942 25.1677 12.2398 25.3485 12.1091C25.5279 11.9784 25.724 11.874 25.9327 11.7975C26.4347 11.6473 26.9271 11.6724 27.4111 11.874Z" fill="#FDAFA0"/>
<path id="Vector_15" d="M27.4613 11.9269L27.4112 11.874C26.9272 11.6724 26.4349 11.6473 25.9328 11.7975C25.7242 11.874 25.5281 11.9784 25.3486 12.1091C25.1678 12.2398 25.0093 12.3942 24.8716 12.5695C24.7339 12.7447 24.6226 12.9366 24.5392 13.1425C24.4557 13.3497 24.4015 13.5639 24.3778 13.785L24.4974 13.8852C24.6504 13.3191 24.9564 12.8532 25.4126 12.486C25.7047 12.2621 26.0274 12.1021 26.382 12.0062C26.7367 11.9088 27.0969 11.8824 27.4613 11.9269Z" fill="#F35F65"/>
<path id="Vector_16" d="M15.2412 12.8908L14.4178 13.7322L18.3817 13.2009C18.3817 13.2009 18.8365 11.728 19.1007 11.5375C19.365 11.347 20.059 11.0869 20.2955 11.3122C20.5333 11.5375 21.2426 13.0132 21.1313 13.2774C21.0201 13.5403 18.9325 14.5612 18.5917 14.5612C18.2509 14.5612 10.7224 16.9436 10.0298 16.7142C9.33576 16.4847 8.93381 15.2413 9.80307 14.3358C10.6723 13.4304 13.5068 10.4137 13.5068 10.4137C14.2482 11.1244 14.8267 11.9506 15.2412 12.8908Z" fill="#FDAFA0"/>
<path id="Vector_17" d="M15.2416 12.8908C14.8271 11.9506 14.2485 11.1244 13.5072 10.4137L13.3083 10.6279C13.6755 10.92 13.987 11.2621 14.2416 11.6557C14.5601 12.1509 14.7701 12.6891 14.8702 13.2691L15.2416 12.8908Z" fill="#F35F65"/>
<path id="Vector_18" d="M11.2556 14.2635L11.1513 14.1022C12.0373 13.525 14.3307 13.6321 14.4267 13.6363V13.8268C14.3919 13.824 12.0901 13.7197 11.2556 14.2635Z" fill="#F35F65"/>
<path id="Vector_19" d="M19.8823 7.90183H18.6028C19.0395 9.11741 19.4762 9.43035 19.8211 9.47625C20.3538 9.53466 20.7627 8.91853 21.2453 9.11324C21.5179 9.22451 21.4526 9.44565 21.8044 9.74468C21.8698 9.8017 22.5444 10.3525 23.23 10.0882C23.4289 9.99502 23.5986 9.8629 23.7363 9.69182C23.8754 9.52075 23.9686 9.32743 24.0186 9.11324L23.2523 8.73076L19.8823 7.90183Z" fill="#FDEAEA"/>
<path id="Vector_20" d="M22.1537 4.29678L19.8825 7.9018C19.8825 7.9018 21.0883 9.93936 23.2483 8.71544L24.3776 5.73351L22.1537 4.29678Z" fill="#FDAFA0"/>
<path id="Vector_21" d="M22.1537 4.29678L21.6016 5.17161C22.0995 6.20778 22.7504 7.14102 23.685 7.57635L24.3777 5.73351L22.1537 4.29678Z" fill="#F35F65"/>
<path id="Vector_22" d="M26.9825 3.91432C26.9825 4.09652 26.9644 4.27733 26.9283 4.45675C26.8935 4.63616 26.8406 4.81002 26.7697 4.9797C26.7002 5.14799 26.6139 5.30793 26.5124 5.46092C26.4109 5.61252 26.2954 5.753 26.1661 5.88234C26.0367 6.01169 25.8949 6.12713 25.7433 6.22866C25.5917 6.33019 25.4303 6.41503 25.2607 6.48596C25.0924 6.5555 24.9171 6.60835 24.7377 6.64451C24.5583 6.67928 24.3775 6.69737 24.1939 6.69737C24.0117 6.69737 23.8295 6.67928 23.6501 6.64451C23.4707 6.60835 23.2968 6.5555 23.1271 6.48596C22.9589 6.41503 22.7975 6.33019 22.6459 6.22866C22.4929 6.12713 22.3525 6.01169 22.2231 5.88234C22.0938 5.753 21.9783 5.61252 21.8768 5.46092C21.7753 5.30793 21.689 5.14799 21.6181 4.9797C21.5486 4.81002 21.4957 4.63616 21.4595 4.45675C21.4248 4.27733 21.4067 4.09652 21.4067 3.91432C21.4067 3.73213 21.4248 3.54993 21.4595 3.3719C21.4957 3.19249 21.5486 3.01863 21.6181 2.84895C21.689 2.68066 21.7753 2.51933 21.8768 2.36773C21.9783 2.21613 22.0938 2.07565 22.2231 1.94631C22.3525 1.81696 22.4929 1.70152 22.6459 1.59999C22.7975 1.49846 22.9589 1.41223 23.1271 1.34269C23.2968 1.27315 23.4707 1.2203 23.6501 1.18413C23.8295 1.14936 24.0117 1.13128 24.1939 1.13128C24.3775 1.13128 24.5583 1.14936 24.7377 1.18413C24.9171 1.2203 25.0924 1.27315 25.2607 1.34269C25.4303 1.41223 25.5917 1.49846 25.7433 1.59999C25.8949 1.70152 26.0367 1.81696 26.1661 1.94631C26.2954 2.07565 26.4109 2.21613 26.5124 2.36773C26.6139 2.51933 26.7002 2.68066 26.7697 2.84895C26.8406 3.01863 26.8935 3.19249 26.9283 3.3719C26.9644 3.54993 26.9825 3.73213 26.9825 3.91432Z" fill="#FDAFA0"/>
<path id="Vector_23" d="M21.005 20.9339L21.3874 20.7893L21.2386 20.0813L20.8895 20.162L15.4987 18.8936L14.1232 17.7072C13.8825 17.7767 13.6711 17.895 13.4875 18.0633C13.3165 18.2232 13.1885 18.411 13.1051 18.6293L15.2066 19.8797L12.0244 30.7601C12.0244 30.7601 18.8867 34.9117 22.0815 31.7615C21.7212 28.1523 21.3624 24.5431 21.005 20.9339Z" fill="#FDEAEA"/>
<g id="Clip path group">
<mask id="mask0_0_69" style="mask-type:luminance" maskUnits="userSpaceOnUse" x="31" y="46" width="14" height="8">
<g id="b4636b1e07">
<path id="Vector_24" d="M31.6864 46.5919H44.852V53.0008H31.6864V46.5919Z" fill="white"/>
</g>
</mask>
<g mask="url(#mask0_0_69)">
<g id="Group">
<path id="Vector_25" d="M44.5977 48.884C44.4641 48.5155 44.2472 48.2053 43.9468 47.9522C42.3195 46.6824 41.4196 48.0593 40.9982 49.0982C41.0372 48.7686 40.9926 48.4501 40.8647 48.1427C40.7924 47.916 40.6728 47.7171 40.5045 47.5461C40.3376 47.3764 40.1415 47.2526 39.9148 47.1761C39.7882 47.1497 39.6616 47.1413 39.5323 47.1525C39.4043 47.1636 39.2805 47.1942 39.1609 47.2415C39.0413 47.2901 38.9314 47.3555 38.8313 47.4362C38.7312 47.5182 38.6463 47.6114 38.574 47.7185C38.4739 47.9772 38.3904 48.2415 38.3209 48.5099C38.2972 48.3068 38.243 48.1135 38.1595 47.9271C38.0747 47.7422 37.9634 47.5725 37.8257 47.4223C37.6894 47.2707 37.5323 47.1441 37.3542 47.0426C37.1776 46.9397 36.9899 46.8673 36.7896 46.8242C35.7896 46.6601 34.8744 47.4849 34.7019 48.3986C34.6143 48.8646 34.6783 49.3082 34.8939 49.7297C34.7534 49.7157 34.6143 49.7269 34.4766 49.7644C34.2569 49.8326 34.0677 49.9508 33.9106 50.1177C33.7534 50.286 33.6463 50.4807 33.5921 50.7046C33.5503 50.9146 33.5573 51.1246 33.6129 51.3319C33.6686 51.5391 33.7673 51.7241 33.9106 51.8854C33.5712 51.6212 33.1873 51.5183 32.7617 51.5767C32.6115 51.5906 32.4738 51.6365 32.3459 51.7157C32.2179 51.7936 32.1136 51.8966 32.033 52.0231C31.9036 52.3096 31.9036 52.5961 32.033 52.884L41.6074 52.8562C41.7673 52.8298 43.8438 52.4751 44.5142 50.8006C44.6422 50.496 44.7145 50.1803 44.7298 49.8493C44.7437 49.5196 44.6992 49.1984 44.5977 48.884Z" fill="#7FA9C6" fill-opacity="0.4667"/>
</g>
</g>
</g>
<path id="Vector_26" d="M35.1622 43.6961C35.2679 43.8157 35.3916 43.9117 35.5349 43.984C35.6768 44.055 35.8284 44.0981 35.9869 44.1134C36.1455 44.1273 36.3012 44.112 36.4556 44.0675C36.6086 44.023 36.7477 43.9521 36.8743 43.8533C36.7936 44.023 36.7588 44.201 36.7686 44.3874C36.7783 44.5751 36.8311 44.7476 36.9271 44.9089C37.0245 45.0675 37.1524 45.1982 37.3096 45.2984C37.4668 45.3999 37.6378 45.4611 37.8228 45.482C38.0064 45.507 38.183 45.4889 38.3569 45.4263C38.5293 45.3637 38.6796 45.265 38.8033 45.1301C38.9257 44.9924 38.9994 44.8311 39.0245 44.6475C39.0481 44.4653 39.0203 44.29 38.9382 44.1245C38.8687 44.0035 38.7755 43.9062 38.6587 43.831C38.7561 43.8171 38.8492 43.7935 38.941 43.7573C39.183 43.6669 39.3527 43.5028 39.4515 43.265C39.5043 43.1342 39.5182 43.0007 39.4932 42.8616C39.4668 42.7226 39.4056 42.603 39.3096 42.5C39.2234 42.4194 39.1218 42.3721 39.005 42.3609C38.8868 42.3484 38.7783 42.3735 38.6768 42.4347C38.7352 42.3387 38.7574 42.2344 38.7408 42.1217C38.7255 42.0105 38.6754 41.9159 38.5933 41.8394C38.3638 41.6614 38.1079 41.6099 37.827 41.6822C37.3986 41.7587 36.9466 42.1023 37.0078 42.5306C36.9396 42.3874 36.8464 42.265 36.7282 42.1607C36.61 42.0564 36.4751 41.9799 36.3249 41.9298C36.1747 41.8811 36.0203 41.8644 35.8631 41.8797C35.706 41.8936 35.5572 41.9395 35.4181 42.0146C35.2873 42.1078 35.1802 42.2219 35.0968 42.3596C35.0119 42.4959 34.9577 42.6433 34.9341 42.8018C34.909 42.9604 34.9174 43.1162 34.9563 43.2719C34.9966 43.4277 35.0648 43.5696 35.1622 43.6961Z" fill="#7FA9C6" fill-opacity="0.4667"/>
<path id="Vector_27" d="M31.9408 52.08C32.0104 52.1273 32.0313 52.1899 32.002 52.2678C31.977 52.3151 31.9408 52.3471 31.8922 52.3679C31.8365 52.4013 31.7767 52.4208 31.7114 52.4291C31.6446 52.4389 31.5862 52.4208 31.5347 52.3749C31.4735 52.2928 31.4735 52.2094 31.5347 52.1259C31.6029 52.0689 31.6808 52.0397 31.7684 52.0383C31.831 52.0341 31.888 52.0494 31.9408 52.08Z" fill="#333333"/>
<path id="Vector_28" d="M34.3125 51.3624C34.4098 51.3568 34.503 51.3763 34.592 51.4194C34.681 51.475 34.7269 51.5557 34.7297 51.66C34.7297 51.7657 34.6866 51.8464 34.599 51.9048C34.4919 51.9632 34.3778 51.9799 34.2582 51.9549C34.1706 51.9451 34.0858 51.9257 34.0023 51.8965C33.9355 51.8784 33.8799 51.8408 33.8368 51.7866C33.7895 51.6823 33.7895 51.5766 33.8368 51.4723C33.8716 51.3693 33.9717 51.3735 34.0635 51.3693L34.3125 51.3624Z" fill="#333333"/>
<path id="Vector_29" d="M34.0245 52.6239C34.0648 52.6475 34.0926 52.6809 34.1066 52.7254C34.1205 52.7699 34.1191 52.8144 34.101 52.8561C34.0384 52.9479 33.9522 52.9897 33.8409 52.9785H33.699C33.6253 52.9757 33.5808 52.9382 33.5683 52.8645C33.5558 52.8186 33.5558 52.7727 33.5683 52.7268C33.5961 52.6267 33.7338 52.5933 33.8214 52.5849C33.8938 52.5738 33.9619 52.5863 34.0245 52.6239Z" fill="#333333"/>
<g id="Clip path group_2">
<mask id="mask1_0_69" style="mask-type:luminance" maskUnits="userSpaceOnUse" x="28" y="52" width="2" height="2">
<g id="bea2d996c0">
<path id="Vector_30" d="M28.838 52.6448H29.9062V53.1399H28.838V52.6448Z" fill="white"/>
</g>
</mask>
<g mask="url(#mask1_0_69)">
<g id="Group_2">
<path id="Vector_31" d="M29.6742 52.6852C29.7549 52.6852 29.8508 52.7464 29.862 52.8257C29.8689 52.8646 29.8606 52.9008 29.8397 52.9328C29.7896 53.0176 29.7187 53.076 29.6255 53.1052C29.5351 53.1331 29.4433 53.1456 29.3488 53.1442C29.257 53.1553 29.1707 53.1386 29.0887 53.0941C29.0191 53.044 28.9857 52.9759 28.9857 52.891C28.9857 52.7311 29.2069 52.688 29.3307 52.6727C29.4461 52.6546 29.5602 52.6574 29.6742 52.6852Z" fill="#333333"/>
</g>
</g>
</g>
<path id="Vector_32" d="M20.4456 3.99785C20.4387 4.13415 20.4582 4.26489 20.5041 4.39285C20.55 4.5208 20.6195 4.63346 20.7113 4.73499C20.8017 4.83513 20.9088 4.91302 21.0326 4.97143C21.155 5.02845 21.2843 5.06044 21.4192 5.0674C21.5555 5.07296 21.6863 5.05349 21.8142 5.00759C21.9422 4.9603 22.0562 4.89215 22.1564 4.80036C22.2565 4.70995 22.3358 4.60286 22.3928 4.47908C22.4498 4.35669 22.4818 4.22734 22.4888 4.09243C22.4943 3.95752 22.4735 3.82539 22.4276 3.69883C22.3817 3.57087 22.3121 3.45682 22.2203 3.35668C22.1285 3.25793 22.0215 3.17866 21.8977 3.12163C21.7753 3.06461 21.6459 3.03262 21.5096 3.02706C21.3747 3.02149 21.244 3.04236 21.1174 3.08825C20.9895 3.13415 20.8768 3.2023 20.7767 3.29409C20.6779 3.3845 20.5986 3.49159 20.5416 3.61259C20.4832 3.73499 20.4512 3.86433 20.4456 3.99785Z" fill="#FDAFA0"/>
<path id="Vector_33" d="M25.6574 4.66401C25.6408 4.70852 25.6435 4.75163 25.6658 4.79475C25.688 4.83786 25.7228 4.86429 25.7701 4.87542C25.816 4.88793 25.8591 4.87959 25.8994 4.85177C25.9384 4.82535 25.962 4.78779 25.9676 4.74051C25.9829 4.69461 25.9801 4.64871 25.9593 4.6056C25.9384 4.56248 25.9064 4.53188 25.8605 4.51519C25.8118 4.50824 25.7687 4.51936 25.7284 4.54718C25.6894 4.57639 25.6658 4.61533 25.6574 4.66401Z" fill="#333333"/>
<path id="Vector_34" d="M23.9424 4.10903C23.9257 4.15493 23.9285 4.19944 23.9493 4.24395C23.9702 4.28706 24.0036 4.31766 24.0495 4.33435C24.0981 4.3413 24.1412 4.33018 24.1816 4.30097C24.2205 4.27315 24.2442 4.23421 24.2525 4.18553C24.2664 4.13963 24.2622 4.09513 24.2414 4.05201C24.2191 4.01029 24.1858 3.97969 24.1412 3.96439C24.0926 3.95604 24.0495 3.96578 24.0105 3.99499C23.9716 4.0228 23.9493 4.06175 23.9424 4.10903Z" fill="#333333"/>
<path id="Vector_35" d="M21.123 4.46511C21.0827 4.46511 21.0548 4.44564 21.0368 4.40948C21.0201 4.37332 21.0242 4.33855 21.0507 4.30795C21.1647 4.17582 21.3024 4.07846 21.4638 4.0131C21.3594 3.96163 21.251 3.91991 21.1383 3.88792C21.1133 3.87958 21.0938 3.86428 21.0813 3.84202C21.0688 3.81838 21.066 3.79474 21.0729 3.76831C21.0813 3.74328 21.0966 3.72519 21.1188 3.71129C21.1425 3.69877 21.1661 3.69599 21.1925 3.70433C21.3956 3.76136 21.5848 3.84898 21.7586 3.9672C21.7948 3.99362 21.8073 4.02839 21.7975 4.07151C21.7878 4.11184 21.7628 4.13688 21.7211 4.14383C21.511 4.17582 21.3358 4.27179 21.1953 4.43034C21.1772 4.4526 21.1522 4.46511 21.123 4.46511Z" fill="#F35F65"/>
<path id="Vector_36" d="M24.8686 5.50827C24.774 5.51105 24.6947 5.47628 24.6307 5.40535C24.6126 5.38727 24.6043 5.36501 24.6043 5.33859C24.6043 5.31216 24.6126 5.28991 24.6307 5.27183C24.6502 5.25236 24.6738 5.24401 24.7003 5.24401C24.7267 5.24401 24.7489 5.25236 24.7684 5.27183C24.7934 5.29825 24.824 5.31077 24.8602 5.30938C24.9061 5.31077 24.945 5.29408 24.9756 5.2607C25.0368 5.17725 25.0368 5.0938 24.9756 5.01174C24.9756 4.9881 24.9367 4.96585 24.9186 4.9422C24.8546 4.88657 24.8115 4.81842 24.7879 4.73636C24.7837 4.70993 24.7879 4.68629 24.8032 4.66404C24.8185 4.64178 24.838 4.62788 24.8644 4.62092C24.8908 4.61536 24.9144 4.62092 24.9367 4.63622C24.959 4.65013 24.9715 4.67099 24.9756 4.69742C24.9937 4.74192 25.0202 4.78087 25.0563 4.81285C25.0855 4.83789 25.1119 4.8671 25.1328 4.90048C25.1912 4.97141 25.2204 5.05208 25.2204 5.14387C25.2204 5.23427 25.1912 5.31633 25.1328 5.38587C25.0647 5.46932 24.9756 5.50966 24.8686 5.50827Z" fill="#333333"/>
<path id="Vector_37" d="M26.3973 4.42346C26.3834 4.42624 26.3709 4.42624 26.3584 4.42346C26.147 4.3261 25.9439 4.21484 25.7492 4.08688C25.7269 4.07297 25.713 4.0535 25.7075 4.02708C25.7019 4.00204 25.7061 3.9784 25.7186 3.95614C25.7534 3.90329 25.7979 3.89356 25.8535 3.92555C26.0399 4.04794 26.2346 4.15503 26.439 4.24683C26.4627 4.25934 26.4794 4.27743 26.4877 4.30246C26.4975 4.3275 26.4961 4.35253 26.4849 4.37756C26.4655 4.41094 26.4363 4.42624 26.3973 4.42346Z" fill="#333333"/>
<path id="Vector_38" d="M24.6312 3.70019C24.4045 3.6543 24.1806 3.5931 23.9609 3.5166C23.9358 3.50826 23.9178 3.49157 23.9052 3.46792C23.8941 3.44428 23.8913 3.41925 23.8997 3.39421C23.908 3.36918 23.9247 3.3511 23.9484 3.33858C23.972 3.32606 23.997 3.32467 24.0221 3.33301C24.2335 3.40951 24.449 3.46932 24.6702 3.51243C24.73 3.52634 24.7536 3.56389 24.7425 3.6237C24.7383 3.65012 24.7258 3.67099 24.7036 3.68628C24.6813 3.70158 24.6577 3.70576 24.6312 3.70019Z" fill="#333333"/>
<path id="Vector_39" d="M24.1608 4.72799C24.1149 4.41505 23.4167 4.20087 23.2414 4.38863C23.1524 4.48042 23.1983 4.65984 23.2414 4.77111C23.2845 4.84065 23.3388 4.89767 23.4055 4.94496C23.4723 4.99225 23.546 5.02424 23.6253 5.04232C23.7046 5.05901 23.7852 5.0604 23.8659 5.0451C23.9452 5.0298 24.0189 4.9992 24.087 4.95469C24.1482 4.89072 24.1733 4.81561 24.1608 4.72799Z" fill="#F35F65" fill-opacity="0.498"/>
<path id="Vector_40" d="M26.3973 5.54305C26.3973 5.25654 25.6727 4.94221 25.4933 5.1411C25.4085 5.23707 25.4627 5.44291 25.5155 5.54722C25.5517 5.61259 25.6004 5.66683 25.6602 5.71273C25.72 5.75724 25.7854 5.78783 25.8591 5.80591C25.9314 5.8226 26.0051 5.82539 26.0774 5.81287C26.1512 5.79896 26.2193 5.77114 26.2819 5.73081C26.3473 5.68491 26.3862 5.62232 26.3973 5.54305Z" fill="#F35F65" fill-opacity="0.498"/>
<path id="Vector_41" d="M24.9185 6.05071C24.9185 5.99368 24.753 6.01315 24.3705 5.88381C23.9268 5.73082 23.7725 5.57783 23.7085 5.63902C23.6431 5.70022 23.7085 6.06601 23.9686 6.22734C24.0451 6.26907 24.1271 6.29688 24.2147 6.31079C24.301 6.3247 24.3886 6.32331 24.4748 6.30801C24.5611 6.29132 24.6417 6.26211 24.7182 6.21761C24.7947 6.1731 24.8615 6.11886 24.9185 6.05071Z" fill="#FDEAEA"/>
<path id="Vector_42" d="M22.1496 3.79611C22.2456 3.41364 22.3332 3.03116 22.4097 2.59861C22.4097 2.49569 22.4486 2.39277 22.4639 2.28985C22.8673 2.53046 23.2859 2.74326 23.7199 2.92824C24.8742 3.41085 26.0759 3.6765 27.3277 3.72379C27.3847 3.40529 27.3805 3.08818 27.3151 2.77246C27.2484 2.45536 27.1246 2.16328 26.9438 1.89624C26.5613 1.36495 26.0286 1.18414 25.4125 0.985255C24.5724 0.679273 23.7212 0.643112 22.8575 0.878161C22.3555 1.02559 21.9507 1.3121 21.6447 1.73491C21.5001 1.93936 21.4041 2.16328 21.3568 2.40807C21.3193 2.61391 21.2692 2.79055 21.4069 2.96301C21.6211 3.25647 21.8965 3.52073 22.1496 3.79611Z" fill="#333333"/>
<path id="Vector_43" d="M20.9509 9.7183C21.001 9.7183 21.0441 9.73499 21.0789 9.76976C21.1136 9.80593 21.1317 9.84765 21.1317 9.89772C21.1317 9.9464 21.1136 9.98951 21.0789 10.0243C21.0441 10.0591 21.001 10.0771 20.9509 10.0771C20.9022 10.0771 20.8591 10.0591 20.8244 10.0243C20.7882 9.98951 20.7715 9.9464 20.7715 9.89772C20.7715 9.84765 20.7882 9.80593 20.8244 9.76976C20.8591 9.73499 20.9022 9.7183 20.9509 9.7183Z" fill="#FDEAEA"/>
<path id="Vector_44" d="M20.8168 10.7726C20.8168 10.8227 20.7988 10.8644 20.764 10.9006C20.7292 10.9353 20.6861 10.952 20.636 10.952C20.5874 10.952 20.5442 10.9353 20.5095 10.9006C20.4747 10.8644 20.4566 10.8227 20.4566 10.7726C20.4566 10.7239 20.4747 10.6808 20.5095 10.646C20.5442 10.6113 20.5874 10.5932 20.636 10.5932C20.6861 10.5932 20.7292 10.6113 20.764 10.646C20.7988 10.6808 20.8168 10.7239 20.8168 10.7726Z" fill="#FDEAEA"/>
<path id="Vector_45" d="M12.8938 37.71C12.5697 37.6836 12.2595 37.6029 11.9633 37.4652C11.8701 37.4249 11.82 37.3526 11.8145 37.2511C11.8145 37.1871 11.8451 37.1454 11.9063 37.1245L11.9716 37.3053C11.9981 37.297 12.0092 37.2789 12.005 37.2511C12.005 37.2511 12.0287 37.2858 12.044 37.2928C12.3194 37.4193 12.6073 37.4958 12.9091 37.5223L12.8938 37.71Z" fill="#F35F65"/>
<path id="Vector_46" d="M21.4444 37.2442C21.0967 37.247 20.8074 37.1204 20.5751 36.8617L20.7211 36.7393C20.9242 36.9702 21.1787 37.0801 21.4875 37.0675V37.2595L21.4444 37.2442Z" fill="#F35F65"/>
<path id="Vector_47" d="M12.1552 21.6294L12.4793 20.8936L12.6545 20.9701L12.3305 21.7059L12.1552 21.6294Z" fill="#FDEAEA"/>
<path id="Vector_48" d="M11.8949 24.8881L11.7071 24.8492C11.7766 24.5251 11.8726 24.2094 11.9936 23.9006L12.1744 23.9743C12.0548 24.2706 11.9616 24.5752 11.8949 24.8881Z" fill="#FDEAEA"/>
<path id="Vector_49" d="M10.4083 33.2942H10.2178C10.24 32.9673 10.2971 32.6461 10.3902 32.3303L10.5738 32.3846C10.4876 32.6822 10.432 32.9854 10.4083 33.2942Z" fill="#FDEAEA"/>
<path id="Vector_50" d="M13.0702 34.372L12.8824 34.3373C12.9242 34.1078 12.9353 33.8755 12.9172 33.6418H13.105C13.1258 33.8866 13.1147 34.13 13.0702 34.372Z" fill="#FDEAEA"/>
<path id="Vector_51" d="M16.4707 33.8825H16.6627V34.3957H16.4707V33.8825Z" fill="#FDEAEA"/>
<path id="Vector_52" d="M21.1842 34.4068C21.098 34.2135 21.0674 34.0118 21.0924 33.8032L21.2844 33.8255C21.2649 34.0007 21.2899 34.169 21.3609 34.3303L21.1842 34.4068Z" fill="#FDEAEA"/>
</g>
</svg>
