<svg width="24" height="24" viewBox="0 0 24 24" fill="none" xmlns="http://www.w3.org/2000/svg">
<g id="message-104 1" opacity="0.4">
<path id="Vector" opacity="0.3" d="M9.10082 6.9261C8.26633 6.9261 7.58984 7.60259 7.58984 8.43708C7.58984 9.27157 8.26633 9.94805 9.10082 9.94805C9.93531 9.94805 10.6118 9.27157 10.6118 8.43708C10.6118 7.60259 9.93531 6.9261 9.10082 6.9261ZM23.981 2.5478C23.8257 1.6741 23.0522 1.00929 22.1183 1.00183L4.7351 1.00931C3.77539 1.09304 3.02058 1.87287 3 2.83078L3.00732 14.2586C3.09586 15.2104 3.91215 15.9561 4.90637 15.9561H5.91966V15.9612L8.73463 15.9561C9.26177 15.9561 9.68832 15.5376 9.68832 15.0215C9.68832 14.5053 9.26177 14.0868 8.73463 14.0868L4.9146 14.0933L4.90815 3.95759C4.94463 3.08604 5.13388 2.91206 6.11239 2.87801L20.4724 2.87184L20.8343 2.87429C20.7891 2.87319 20.7422 2.87237 20.6938 2.87177L22.0739 2.87117L22.0746 4.00097L22.0667 2.88259L20.8343 2.87429C21.8703 2.8995 22.0466 3.06791 22.0747 4.18824L22.081 14.0876L13.5339 14.0949C13.5049 14.0939 13.4759 14.094 13.447 14.0955C13.1205 14.1019 12.8344 14.2691 12.6674 14.5196L8.00905 19.0559C7.63654 19.421 7.63654 20.0134 8.00905 20.378C8.38162 20.7431 8.98514 20.7431 9.35766 20.378L13.8895 15.9644L21.0892 15.9579V15.9561H22.1025C23.0586 15.9561 23.8505 15.2665 23.9885 14.3671L23.981 2.5478ZM4.91239 2.88261L4.90783 3.52991L4.90743 2.87853L5.56748 2.87825L4.91239 2.88261ZM15.0248 8.48505C15.0248 7.65056 14.3483 6.97407 13.5138 6.97407C12.6793 6.97407 12.0028 7.65056 12.0028 8.48505C12.0028 9.31954 12.6793 9.99602 13.5138 9.99602C14.3483 9.99602 15.0248 9.31954 15.0248 8.48505ZM22.0754 12.8374C22.0794 12.6578 22.0797 12.4524 22.0797 12.2175L22.0754 12.8374ZM4.93501 13.0507L4.9422 14.0745L6.22339 14.0827C5.1524 14.0608 4.96624 13.922 4.93501 13.0507ZM6.22341 14.0827C6.40974 14.0865 6.6226 14.0868 6.86635 14.0868L6.22341 14.0827ZM4.93501 13.0507L4.92916 12.2175C4.92916 12.5514 4.92695 12.8254 4.93501 13.0507ZM20.1724 14.0868C20.4722 14.0868 20.7247 14.0878 20.9376 14.0818L20.1724 14.0868ZM22.0754 12.8374C22.0518 13.8854 21.9006 14.0549 20.9376 14.0818L22.0667 14.0745L22.0754 12.8374ZM19.5337 8.48505C19.5337 7.65056 18.8573 6.97407 18.0228 6.97407C17.1883 6.97407 16.5118 7.65056 16.5118 8.48505C16.5118 9.31954 17.1883 9.99602 18.0228 9.99602C18.8573 9.99602 19.5337 9.31954 19.5337 8.48505Z" fill="black"/>
<path id="Vector_2" d="M7.547 8.92607C6.71251 8.92607 6.03602 9.60256 6.03602 10.437C6.03602 11.2715 6.71251 11.948 7.547 11.948C8.38149 11.948 9.05797 11.2715 9.05797 10.437C9.05797 9.60256 8.38149 8.92607 7.547 8.92607ZM22.4272 4.54777C22.2719 3.67406 21.4984 3.00926 20.5645 3.0018L3.18129 3.00928C2.22158 3.09301 1.46676 3.87284 1.44618 4.83075L1.4535 16.2586C1.54205 17.2103 2.35833 17.9561 3.35256 17.9561H4.36584V17.9612L7.18082 17.9561C7.70795 17.9561 8.1345 17.5376 8.1345 17.0214C8.1345 16.5053 7.70795 16.0868 7.18082 16.0868L3.36078 16.0933L3.35433 5.95756C3.39081 5.08601 3.58006 4.91203 4.55858 4.87798L18.9186 4.87181L19.2805 4.87426C19.2353 4.87316 19.1884 4.87234 19.1399 4.87174L20.52 4.87114L20.5208 6.00094L20.5129 4.88256L19.2805 4.87426C20.3164 4.89947 20.4928 5.06788 20.5209 6.18821L20.5272 16.0876L11.9801 16.0949C11.9511 16.0938 11.9221 16.094 11.8932 16.0955C11.5667 16.1018 11.2806 16.2691 11.1136 16.5196L6.45524 21.0559C6.08272 21.421 6.08272 22.0133 6.45524 22.378C6.8278 22.7431 7.43133 22.7431 7.80384 22.378L12.3357 17.9644L19.5354 17.9579V17.9561H20.5487C21.5048 17.9561 22.2966 17.2664 22.4347 16.3671L22.4272 4.54777ZM3.35857 4.88258L3.35402 5.52988L3.35361 4.8785L4.01367 4.87822L3.35857 4.88258ZM13.471 10.485C13.471 9.65052 12.7945 8.97404 11.96 8.97404C11.1255 8.97404 10.449 9.65052 10.449 10.485C10.449 11.3195 11.1255 11.996 11.96 11.996C12.7945 11.996 13.471 11.3195 13.471 10.485ZM20.5216 14.8374C20.5256 14.6577 20.5259 14.4524 20.5259 14.2174L20.5216 14.8374ZM3.38119 15.0507L3.38839 16.0744L4.66957 16.0827C3.59858 16.0608 3.41242 15.922 3.38119 15.0507ZM4.6696 16.0827C4.85593 16.0865 5.06878 16.0868 5.31253 16.0868L4.6696 16.0827ZM3.38119 15.0507L3.37534 14.2174C3.37534 14.5514 3.37313 14.8254 3.38119 15.0507ZM18.6185 16.0868C18.9183 16.0868 19.1708 16.0878 19.3838 16.0818L18.6185 16.0868ZM20.5216 14.8374C20.498 15.8854 20.3468 16.0548 19.3838 16.0818L20.5128 16.0744L20.5216 14.8374ZM17.9799 10.485C17.9799 9.65052 17.3034 8.97404 16.4689 8.97404C15.6345 8.97404 14.958 9.65052 14.958 10.485C14.958 11.3195 15.6345 11.996 16.4689 11.996C17.3034 11.996 17.9799 11.3195 17.9799 10.485Z" fill="black"/>
</g>
</svg>
