<svg width="55" height="42" viewBox="0 0 55 42" fill="none" xmlns="http://www.w3.org/2000/svg">
<g id="Group 5">
<g id="Clip path group">
<mask id="mask0_0_30" style="mask-type:luminance" maskUnits="userSpaceOnUse" x="0" y="0" width="55" height="42">
<g id="698d58acce">
<path id="Vector" d="M0 0H54.5571V41.4634H0V0Z" fill="white"/>
</g>
</mask>
<g mask="url(#mask0_0_30)">
<g id="Group">
<path id="Vector_2" d="M50.3037 20.7303C48.9625 20.7303 47.8756 21.8214 47.8756 23.1669V29.9311C47.8756 30.3289 47.6014 30.6614 47.2334 30.7523V29.9752H46.1309V30.255C46.0698 30.255 46.0187 30.3048 46.0187 30.3673H42.2949C42.2949 30.3048 42.2452 30.255 42.1841 30.255V29.9752H41.0816V30.7523C40.7136 30.6614 40.4394 30.3289 40.4394 29.9311V24.4186H41.2378V23.3132H40.9594C40.9594 23.2507 40.9096 23.201 40.8486 23.201V21.6637C40.9437 21.4222 40.9494 21.148 40.8486 20.8922V18.2795C40.9096 18.2795 40.9594 18.2297 40.9594 18.1672H41.2378V17.0619H40.4394V10.4099H44.6079C46.2048 10.4099 47.4991 9.11131 47.4991 7.51012V3.60445C47.5602 3.60445 47.6099 3.55473 47.6099 3.49221H48.5178C48.7167 3.49221 48.8773 3.33025 48.8773 3.13134V2.86424C48.8773 2.66533 48.7167 2.50336 48.5178 2.50336H40.1453V0.264249C40.1453 0.123594 40.0316 0.00993347 39.891 0.00993347H38.5597C38.4191 0.00993347 38.3068 0.123594 38.3068 0.264249V2.50336H29.9329C29.734 2.50336 29.5734 2.66533 29.5734 2.86424V3.13134C29.5734 3.33025 29.734 3.49221 29.9329 3.49221H30.8407C30.8407 3.55473 30.8905 3.60445 30.9516 3.60445V7.51012C30.9516 9.11131 32.2459 10.4099 33.8428 10.4099H38.0113V16.5888C37.1191 17.005 36.3831 17.6785 36.3831 17.6785L27.2732 17.9513C27.2732 17.9513 25.6578 14.5173 24.0452 12.2455C24.0381 12.2356 24.031 12.227 24.0239 12.2171C23.9628 12.1304 23.9003 12.0438 23.8392 11.9614C23.8378 11.9599 23.8364 11.9585 23.8364 11.9571C23.6631 11.7255 23.4911 11.5081 23.3221 11.3135C23.808 10.8347 24.2442 10.4099 24.2442 10.4099C24.2442 10.4099 25.0341 10.9825 25.5427 10.9512C25.8041 10.937 26.1679 10.6202 26.4591 10.3175C26.4733 10.3232 26.4889 10.3275 26.5032 10.3275C26.5358 10.3275 26.5685 10.3133 26.5898 10.2863C26.6182 10.2508 26.6225 10.2025 26.6026 10.1641C26.8044 9.94104 26.9464 9.75634 26.9464 9.75634L27.8245 9.9524L27.8117 8.38246L28.1967 7.60815C29.4839 8.38246 31.0624 9.27328 31.2897 9.26333C31.6293 9.24628 28.9255 7.10236 28.9255 7.10236C28.9255 7.10236 29.2012 5.36477 29.1358 4.82915C29.0719 4.29352 26.6765 2.34992 25.5754 2.51331C25.2017 2.5673 24.811 2.77615 24.4587 3.0262C24.3876 3.07735 24.318 3.12992 24.2498 3.18249C24.1831 3.23506 24.1163 3.28904 24.0538 3.34303C24.0523 3.34445 24.0509 3.34587 24.0495 3.3473C23.9884 3.39986 23.9287 3.45101 23.8719 3.50358C23.8705 3.505 23.8691 3.50642 23.8662 3.50784C23.8094 3.56041 23.7554 3.61156 23.7057 3.65986C23.7043 3.65986 23.7043 3.65986 23.7043 3.66128C23.4144 3.94117 23.2283 4.16281 23.2283 4.16281C22.1116 5.88335 22.1926 8.04432 22.1926 8.04432L21.1071 9.08432C21.1085 9.08716 21.11 9.09142 21.1114 9.09568L21.11 9.09426H21.1085C21.0872 9.08148 21.0631 9.07011 21.0389 9.05732C21.0361 9.0559 21.0332 9.05448 21.0304 9.05306C21.0077 9.0417 20.9835 9.02891 20.9594 9.01612C20.9551 9.0147 20.9508 9.01186 20.9452 9.01044C20.9224 8.99765 20.8968 8.98629 20.8727 8.9735C20.8656 8.97066 20.8599 8.96782 20.8542 8.96497C20.8286 8.95361 20.8031 8.94224 20.7775 8.92946C20.7704 8.92661 20.7633 8.92377 20.7562 8.92093C20.7292 8.90814 20.7022 8.89678 20.6752 8.88541C20.6695 8.88257 20.6624 8.87973 20.6567 8.87689C20.6269 8.8641 20.5971 8.85131 20.5672 8.83995C20.5615 8.83711 20.5559 8.83569 20.5502 8.83284C20.5189 8.82006 20.4862 8.80727 20.4536 8.79448C20.4493 8.79306 20.4465 8.79164 20.4436 8.79164C20.4081 8.77743 20.3712 8.76465 20.3342 8.75044V8.75186C19.6295 8.50181 18.6819 8.33416 17.8223 8.74334C16.17 9.52902 13.4606 13.6549 12.7644 14.746C12.7048 14.8213 12.6479 14.9094 12.5968 15.0117C12.5968 15.0117 10.9302 17.9669 9.88455 20.7459C9.87886 20.7573 9.8746 20.7701 9.87034 20.7828C9.83056 20.888 9.7922 20.9945 9.75384 21.0997C9.75384 21.1011 9.75241 21.1025 9.75241 21.1039C9.70979 21.2204 9.67001 21.3384 9.63023 21.4549C9.63023 21.4549 9.63023 21.4549 9.63023 21.4563C9.55067 21.6893 9.47821 21.9195 9.41285 22.1454C9.21821 22.8145 9.08892 23.4368 9.06335 23.9611C8.84739 28.4578 11.3905 34.7262 11.3905 34.7262L5.31397 33.0838C5.31397 33.0838 4.30381 32.6036 3.25813 32.3634C3.15441 32.3393 3.05212 32.318 2.94982 32.2995C2.9413 32.2981 2.9342 32.2981 2.92709 32.2967C2.88589 32.2896 2.84469 32.2825 2.80349 32.2768C2.78928 32.2739 2.77507 32.2725 2.76086 32.2697C2.72677 32.2654 2.69267 32.2612 2.65857 32.2569C2.64152 32.2555 2.62447 32.2526 2.60742 32.2512C2.57616 32.2484 2.54491 32.2455 2.51365 32.2427C2.4966 32.2413 2.47813 32.2398 2.46108 32.2384C2.43125 32.237 2.40141 32.2356 2.37158 32.2342C2.35311 32.2327 2.33606 32.2327 2.31901 32.2313C2.28775 32.2313 2.25649 32.2313 2.22666 32.2313C2.21103 32.2313 2.19682 32.2313 2.18261 32.2313C2.13857 32.2327 2.09453 32.2342 2.0519 32.237C2.05048 32.237 2.05048 32.237 2.04906 32.237C2.04906 32.237 1.41825 33.9234 0.878359 35.4721C0.865572 35.5118 0.851364 35.5516 0.837157 35.5914C0.795955 35.7093 0.756173 35.8273 0.716392 35.9423C0.703605 35.9807 0.690819 36.0191 0.678032 36.0574C0.625464 36.2094 0.575737 36.3572 0.528852 36.4993C0.504699 36.5703 0.481967 36.6399 0.460656 36.7081C0.44929 36.7422 0.437924 36.7763 0.427978 36.809C0.413771 36.853 0.400984 36.8942 0.386776 36.9369C0.372569 36.9809 0.359782 37.0235 0.346995 37.0647C0.341312 37.0818 0.33705 37.0974 0.331367 37.1145C0.28164 37.2779 0.237597 37.4242 0.204919 37.5492C0.194974 37.5833 0.186449 37.616 0.179346 37.6472C0.170821 37.6785 0.163717 37.7083 0.158034 37.7353C0.156614 37.7439 0.153772 37.751 0.152351 37.7595C0.149509 37.7723 0.146668 37.7865 0.143827 37.7993C0.00175078 38.4997 0.940872 39.713 1.6754 40.4604C1.67682 40.4604 1.67682 40.4604 1.67682 40.4604C1.74218 40.5271 1.80611 40.5896 1.86721 40.6479C1.87005 40.6507 1.87289 40.6536 1.87715 40.6564C1.91977 40.699 1.9624 40.7374 2.0036 40.7743C2.19256 40.9448 2.34742 41.0613 2.43125 41.0969C2.49518 41.1238 2.62021 41.1466 2.78502 41.1665C2.85037 41.1736 2.92283 41.1807 2.99955 41.1864C3.11321 41.1963 3.23824 41.2048 3.36895 41.2119C3.41583 41.2134 3.46414 41.2162 3.51244 41.219C3.75539 41.229 4.01397 41.2375 4.26545 41.2432C4.34927 41.2446 4.4331 41.2475 4.5155 41.2489C4.75987 41.2531 4.99145 41.2546 5.18326 41.256C5.24719 41.256 5.30686 41.256 5.36085 41.256H5.36227C5.41626 41.256 5.46599 41.2574 5.51003 41.2574C5.64074 41.2574 5.71888 41.256 5.71888 41.256C5.71888 41.256 5.71888 41.2546 5.7203 41.2503C5.72172 41.2503 5.72172 41.2475 5.72314 41.246C5.72314 41.2432 5.72457 41.2389 5.72741 41.2347C5.72883 41.2318 5.72883 41.2276 5.73025 41.2247C5.73309 41.2205 5.73451 41.2148 5.73735 41.2091C5.73877 41.2034 5.74019 41.1991 5.74303 41.1935C5.74446 41.1878 5.74588 41.1821 5.74872 41.175C5.7544 41.1608 5.76008 41.1452 5.76577 41.1281C5.76719 41.1238 5.76861 41.1182 5.77145 41.1125C5.77429 41.104 5.77713 41.0926 5.7814 41.0826C5.78282 41.0755 5.78566 41.0684 5.7885 41.0613C5.79134 41.05 5.7956 41.0386 5.79987 41.0272C5.80129 41.0201 5.80413 41.013 5.80555 41.0059C5.80981 40.9931 5.81407 40.9803 5.81834 40.9676C5.81976 40.9605 5.8226 40.9534 5.82402 40.9477C5.83823 40.9008 5.85243 40.8511 5.86664 40.8013C5.86806 40.7928 5.8709 40.7843 5.87232 40.7743C5.87659 40.7601 5.87943 40.7459 5.88369 40.7317C5.88511 40.7232 5.88795 40.7132 5.89079 40.7033C5.89364 40.6891 5.89648 40.6749 5.89932 40.6607C5.90216 40.6522 5.90358 40.6422 5.90642 40.6323C5.90926 40.6181 5.91211 40.6038 5.91495 40.5896C5.91637 40.5769 5.91779 40.5655 5.92063 40.5541C5.92205 40.5442 5.92347 40.5342 5.92489 40.5257C5.92489 40.5257 5.92489 40.5257 5.92347 40.5257C5.93626 40.4447 5.94336 40.368 5.94052 40.2998C5.92489 39.9503 4.46577 39.6136 4.10774 39.1362C4.10916 39.1362 13.7604 41.2546 15.6997 41.3412C17.639 41.4279 18.9746 41.2119 18.7586 38.9202C18.6307 37.5535 17.8436 33.0056 17.2284 29.5546L22.1627 30.1627L19.2616 37.3631C19.2616 37.3645 18.8453 38.8705 18.7558 40.2131C18.7543 40.2231 18.7543 40.233 18.7543 40.243C18.7501 40.3097 18.7458 40.3765 18.7444 40.4433C18.743 40.4504 18.743 40.4589 18.743 40.466C18.7401 40.5385 18.7387 40.611 18.7387 40.682C18.7387 40.6834 18.7387 40.6862 18.7387 40.6877C18.7387 40.7573 18.7401 40.8255 18.743 40.8923C18.743 40.9065 18.7444 40.9207 18.7444 40.9349C18.7487 41.0002 18.7515 41.0642 18.7586 41.1267C18.7586 41.1281 18.7586 41.1281 18.7586 41.1281C18.7586 41.1281 18.9916 41.1665 19.3539 41.2105C19.3809 41.2148 19.4093 41.2176 19.4391 41.2219C19.7006 41.2531 20.0188 41.2858 20.3598 41.3114C20.4038 41.3156 20.4479 41.3185 20.4919 41.3213C20.8002 41.3426 21.1242 41.3568 21.4382 41.3568C21.7365 41.3568 22.248 41.3682 22.8646 41.3838C22.9072 41.3853 22.9513 41.3853 22.9953 41.3867C23.0777 41.3895 23.1615 41.3909 23.2468 41.3938C23.2496 41.3938 23.251 41.3938 23.2539 41.3938C23.3391 41.3952 23.4258 41.3981 23.5125 41.3995C23.5153 41.3995 23.5181 41.3995 23.5196 41.4009C23.6077 41.4023 23.6972 41.4052 23.7867 41.4066C23.7895 41.4066 23.7909 41.4066 23.7938 41.4066C23.977 41.4108 24.1646 41.4165 24.355 41.4208C24.5454 41.425 24.7372 41.4293 24.9304 41.4321C25.0256 41.4336 25.1222 41.4364 25.2188 41.4378C25.314 41.4393 25.4078 41.4407 25.5029 41.4421C25.5512 41.4435 25.5996 41.4435 25.6464 41.4449C25.9306 41.4492 26.2076 41.452 26.4719 41.452C26.56 41.4535 26.6467 41.4535 26.7319 41.4535C26.8171 41.4535 26.8995 41.452 26.982 41.452C27.1041 41.4506 27.2206 41.4492 27.3343 41.4478C27.4082 41.4464 27.4821 41.4449 27.5517 41.4435C27.5872 41.4421 27.6213 41.4421 27.654 41.4407C27.8216 41.435 27.9708 41.4279 28.1015 41.4194C28.3132 41.4037 28.4709 41.3838 28.5576 41.3568C28.5576 41.3568 28.5576 41.354 28.559 41.3497C28.559 41.3483 28.559 41.3455 28.5604 41.3426C28.5604 41.3398 28.5618 41.3355 28.5618 41.3313C28.5789 41.2375 28.6428 40.8667 28.6315 40.5413C28.6315 40.5399 28.6315 40.5399 28.6315 40.5399C28.6272 40.3879 28.6073 40.2458 28.5576 40.1464C28.3842 39.7997 25.3666 39.1845 24.6349 38.7384C24.4672 38.6361 24.3365 38.5267 24.2342 38.4173C24.6491 38.369 24.9204 38.315 24.9204 38.315C24.9204 38.315 29.6317 29.61 30.2355 27.881C30.487 27.1621 30.5679 26.5 30.4813 25.9501L31.0638 25.666C31.3494 26.0382 31.6236 26.2982 31.8239 26.2783C31.9489 26.2656 32.1208 26.2016 32.3126 26.1107C32.3723 26.1306 32.432 26.1419 32.4959 26.1419C32.5016 26.1419 32.5073 26.1419 32.5144 26.1419C32.5755 26.1391 32.6238 26.088 32.6209 26.0254C32.6209 26.0027 32.611 25.9814 32.5982 25.9629C32.763 25.872 32.9335 25.7697 33.0969 25.6674C33.1438 25.6774 33.1921 25.6859 33.2432 25.6901C33.2475 25.6916 33.2503 25.6916 33.2532 25.6916C33.31 25.6916 33.3597 25.6475 33.364 25.5893C33.3668 25.5594 33.3569 25.5324 33.3398 25.5111C33.5203 25.3918 33.6794 25.2838 33.7945 25.2028C33.8286 25.2113 33.8641 25.2213 33.901 25.2284C33.9096 25.2298 33.9167 25.2312 33.9238 25.2312C33.9749 25.2312 34.0218 25.1943 34.0332 25.1403C34.0374 25.1133 34.0318 25.0877 34.0204 25.0664C34.1951 25.0636 35.0519 25.038 35.1755 24.7922C35.3119 24.518 35.1328 23.6698 35.1328 23.6698L37.6021 22.4593V23.201C37.541 23.201 37.4899 23.2507 37.4899 23.3132H37.2114V24.4186H38.0113V30.7779C38.0113 32.1233 39.0982 33.2131 40.4394 33.2131H41.0816V34.0158H42.1841V33.7359C42.2452 33.7359 42.2949 33.6862 42.2949 33.6237H46.0187C46.0187 33.6862 46.0684 33.7359 46.1309 33.7359V34.0158H47.232V33.2131H47.8756C49.2168 33.2131 50.3037 32.1233 50.3037 30.7779V24.0122C50.3037 23.5448 50.6802 23.1669 51.1462 23.1669H54.5603V20.7303H50.3037ZM4.07364 38.9941C4.09353 39.0865 4.10774 39.1362 4.10774 39.1362C4.08075 39.1007 4.0708 39.051 4.07364 38.9941ZM29.5464 24.5976C29.3049 24.4811 29.0179 24.4086 28.684 24.393C26.9862 24.3134 19.1181 23.5576 19.1181 23.5576L19.5784 22.6043C23.0933 23.1584 29.68 23.424 29.68 23.424C29.7837 23.5974 29.9613 23.9199 30.1758 24.2893L29.5464 24.5976ZM34.3429 22.2462C34.3429 22.2462 33.2759 21.4449 32.7701 21.2105C32.7119 21.1835 32.6394 21.1565 32.557 21.1309V21.1295C32.5698 21.0869 32.5542 21.0443 32.5243 21.0173C34.681 20.7019 36.4698 20.4163 36.4698 20.4163L36.8278 20.449C36.8037 20.628 36.825 20.8155 36.8988 20.9931L34.3429 22.2462ZM43.0806 2.50336H41.62V1.2673C41.62 1.10818 41.7479 0.978891 41.907 0.978891H44.5184C44.6562 0.978891 44.7841 1.07266 44.8054 1.20905C44.8338 1.38381 44.7002 1.53441 44.5326 1.53441H43.332C43.1928 1.53441 43.0806 1.64807 43.0806 1.7873V2.50336ZM33.6453 1.20905C33.668 1.07266 33.7959 0.978891 33.9337 0.978891H36.5437C36.7028 0.978891 36.8321 1.10818 36.8321 1.2673V2.50336H35.3715V1.7873C35.3715 1.64807 35.2579 1.53441 35.1186 1.53441H33.9181C33.7504 1.53441 33.6169 1.38381 33.6453 1.20905Z" fill="#F2DDCC"/>
</g>
</g>
</g>
<g id="Clip path group_2">
<mask id="mask1_0_30" style="mask-type:luminance" maskUnits="userSpaceOnUse" x="0" y="5" width="39" height="37">
<g id="c10ca44b3f">
<path id="Vector_3" d="M0 5.20566H38.3718V41.4634H0V5.20566Z" fill="white"/>
</g>
</mask>
<g mask="url(#mask1_0_30)">
<g id="Group_2">
<path id="Vector_4" d="M28.5576 40.1464C28.3857 39.8012 25.3666 39.1846 24.6349 38.7385C24.4673 38.6376 24.3366 38.5268 24.2343 38.4174C23.5097 38.5026 22.3475 38.5708 21.4169 38.3151C19.9507 37.9116 19.2616 37.3646 19.2616 37.3646C19.2616 37.3646 18.8453 38.8706 18.7558 40.2132C19.4122 40.2928 20.5374 40.4164 21.6002 40.4746C23.396 40.5712 26.2745 40.5698 27.3031 40.5712C27.8131 40.5727 28.2848 40.557 28.6329 40.54C28.6272 40.388 28.6074 40.2459 28.5576 40.1464ZM28.5619 41.3328C28.5804 41.2376 28.6429 40.8668 28.6329 40.5414C28.6429 40.8653 28.5804 41.2347 28.5619 41.3328ZM5.92495 40.5258C5.92495 40.5258 5.92494 40.5258 5.92352 40.5258C5.9221 40.5357 5.9221 40.5442 5.92068 40.5542C5.9221 40.5442 5.92352 40.5343 5.92495 40.5258ZM4.1078 39.1363C4.0808 39.1008 4.07086 39.051 4.0737 38.9942C3.99698 38.6276 3.83217 37.5862 4.1078 36.2393C4.45304 34.5543 5.31402 33.0838 5.31402 33.0838C5.31402 33.0838 4.30386 32.6036 3.25818 32.3635C2.98255 32.9943 2.41567 34.3355 2.08179 35.4181C1.62999 36.8886 1.22081 37.7752 1.37141 38.1858C1.52202 38.5964 2.64868 40.1095 3.16299 40.2388C3.52528 40.3297 5.05118 40.4576 5.92352 40.5258C5.93631 40.4448 5.94342 40.3681 5.94057 40.2999C5.92494 39.9504 4.46583 39.6136 4.1078 39.1363ZM4.51555 41.2489C4.75992 41.2532 4.99151 41.2546 5.18331 41.256C4.99151 41.2546 4.75992 41.2518 4.51555 41.2489ZM38.0114 17.0619V16.5888C37.1191 17.0051 36.3832 17.6786 36.3832 17.6786L27.2733 17.9513C26.9195 18.7313 26.4123 19.3153 25.996 19.7046C28.0916 20.1208 30.0366 20.5144 30.2483 20.5584C30.3691 20.584 30.5708 20.6167 30.8038 20.6565C31.3167 20.7431 32.0186 20.8611 32.4803 20.9918C32.4974 20.996 32.5116 21.006 32.5244 21.0173C34.6811 20.7019 36.4698 20.4164 36.4698 20.4164L36.8279 20.449C36.8719 20.1109 37.0779 19.8012 37.4061 19.6406L37.6022 19.544V18.2795C37.5411 18.2795 37.4914 18.2298 37.4914 18.1673H37.2129V17.0619H38.0114ZM35.1329 23.6699C35.1329 23.6699 34.6683 23.7765 34.4154 23.7367C34.1625 23.6983 33.6738 22.5745 33.6738 22.5745L34.343 22.2463C34.343 22.2463 33.276 21.445 32.7702 21.2106C32.7119 21.1836 32.6395 21.1566 32.5571 21.131C32.5429 21.1793 32.4988 21.2106 32.4505 21.2106C32.4406 21.2106 32.4306 21.2091 32.4207 21.2063C31.9703 21.0784 31.2741 20.9619 30.7669 20.8767C30.5311 20.8369 30.3279 20.8028 30.2029 20.7772C29.9883 20.7318 27.9865 20.3283 25.8539 19.9035C25.7928 19.8921 25.7545 19.8324 25.7658 19.7728C24.0524 19.4318 22.2679 19.0823 21.2549 18.8947C21.2024 18.8848 21.1512 18.8748 21.1015 18.8663C20.8273 18.8166 20.6227 18.7811 20.5119 18.7654C20.1425 18.7129 19.4193 18.6731 18.6578 18.6447C18.493 18.6376 18.3253 18.6319 18.1605 18.6262C17.0466 18.5921 15.9981 18.5779 15.9981 18.5779C15.9981 18.5779 16.0223 18.6916 16.0677 18.8791C16.2524 19.6349 16.7994 21.5913 17.5865 22.0886C17.7414 22.1852 18.0028 22.2776 18.3452 22.3642C18.5143 22.4068 18.7032 22.448 18.9093 22.4878C19.1167 22.529 19.3397 22.5674 19.5784 22.6043C23.0934 23.1584 29.68 23.4241 29.68 23.4241C29.7837 23.5974 29.9613 23.9199 30.1759 24.2893C30.4401 24.7454 30.7584 25.2697 31.0638 25.6661C31.3508 26.0383 31.6236 26.2983 31.8239 26.2784C31.949 26.2656 32.1209 26.2017 32.3141 26.1108C31.8964 25.9701 31.5909 25.3947 31.5753 25.3663C31.5469 25.3123 31.5682 25.2455 31.6222 25.2157C31.6776 25.1873 31.7444 25.2086 31.7728 25.2626C31.8708 25.4487 32.1948 25.9275 32.5059 25.919C32.5443 25.9161 32.577 25.936 32.5983 25.963C32.7631 25.8721 32.9336 25.7698 33.0969 25.6675C32.5201 25.5425 32.2971 25.0225 32.2871 24.9983C32.263 24.9415 32.29 24.8761 32.3468 24.852C32.4036 24.8278 32.469 24.8548 32.4931 24.9116C32.5017 24.9344 32.7133 25.4203 33.2632 25.4686C33.2944 25.4714 33.3228 25.487 33.3399 25.5112C33.5203 25.3933 33.6795 25.2839 33.7945 25.2029C33.3541 25.0793 33.1453 24.7966 33.0728 24.6985C33.0671 24.69 33.0614 24.6843 33.0586 24.6801C33.0188 24.6431 33.0103 24.582 33.0415 24.5351C33.0756 24.484 33.1438 24.4698 33.195 24.5039C33.2163 24.5181 33.2305 24.5366 33.2518 24.5664C33.3243 24.663 33.5147 24.923 33.9451 25.0097C33.9792 25.0168 34.0048 25.0381 34.0204 25.0665C34.1952 25.0637 35.0533 25.0381 35.1755 24.7923C35.3119 24.5195 35.1329 23.6699 35.1329 23.6699ZM21.1114 9.09575C21.11 9.09149 21.1086 9.08723 21.1072 9.08439L22.1926 8.04439L23.6645 7.6068C23.6645 7.6068 23.3577 7.28145 23.4869 6.43752C23.639 5.44298 24.8026 5.33216 25.1379 5.75555C25.4845 6.19172 25.4291 6.68046 25.4291 6.68046L26.2304 6.33948C26.4094 6.46735 26.5686 6.57959 26.6922 6.66484C26.9834 6.86516 27.5546 7.22177 28.1968 7.60822L27.8117 8.38253L27.8245 9.95247L26.9465 9.75641C26.9465 9.75641 26.8044 9.94111 26.6027 10.1642C26.5956 10.1514 26.5856 10.14 26.5742 10.1301C26.5643 10.1215 26.3384 9.9269 26.354 9.44668C26.3554 9.38559 26.3071 9.33302 26.2461 9.3316C26.1821 9.32876 26.1324 9.37848 26.131 9.43958C26.1125 10.0391 26.4208 10.2935 26.435 10.3034C26.4421 10.3105 26.4506 10.3133 26.4592 10.3176C26.1679 10.6202 25.8042 10.9371 25.5428 10.9513C25.0341 10.9811 24.2442 10.41 24.2442 10.41C24.2442 10.41 23.8066 10.8348 23.3221 11.3136L23.3207 11.315C23.2809 11.3533 23.2411 11.3931 23.2014 11.4329C23.1005 11.5338 22.9982 11.6346 22.8987 11.7341C22.3034 11.7043 21.4254 10.0491 21.1114 9.09575ZM27.3827 8.14669C27.3216 8.09696 27.1838 8.16516 27.0744 8.29871C26.9635 8.43368 26.9238 8.58286 26.9848 8.63259C27.0459 8.68373 27.1838 8.61412 27.2946 8.48057C27.404 8.34559 27.4438 8.19641 27.3827 8.14669ZM27.6739 8.03161C27.654 7.99893 27.4665 7.71904 26.8442 7.88811C26.7845 7.90374 26.749 7.96483 26.766 8.0245C26.7817 8.08417 26.8428 8.11969 26.9024 8.10406C27.3486 7.98188 27.4778 8.141 27.485 8.14953C27.5063 8.18221 27.5418 8.20068 27.5787 8.20068C27.5972 8.20068 27.6171 8.19641 27.6356 8.18505C27.6881 8.15379 27.7052 8.08417 27.6739 8.03161ZM26.7121 7.29849C26.7078 7.36101 26.7547 7.41358 26.8158 7.41784C27.5077 7.46614 27.8515 7.86822 27.8558 7.8739C27.8785 7.9009 27.9098 7.9151 27.9424 7.9151C27.9666 7.9151 27.9922 7.90658 28.0121 7.88953C28.0604 7.85117 28.0675 7.78013 28.0277 7.73325C28.0121 7.71336 27.6242 7.25019 26.8314 7.19478C26.7689 7.19194 26.7163 7.2374 26.7121 7.29849Z" fill="#E1824F"/>
</g>
</g>
</g>
<g id="Clip path group_3">
<mask id="mask2_0_30" style="mask-type:luminance" maskUnits="userSpaceOnUse" x="9" y="0" width="46" height="34">
<g id="ee6b29962d">
<path id="Vector_5" d="M9.27492 0H54.5573V33.5754H9.27492V0Z" fill="white"/>
</g>
</mask>
<g mask="url(#mask2_0_30)">
<g id="Group_3">
<path id="Vector_6" d="M9.88416 20.7445C9.97367 20.8056 10.0731 20.8709 10.1783 20.9377L9.73498 22.3869C9.62416 22.3102 9.51618 22.2292 9.41105 22.1453C9.47782 21.9194 9.55028 21.6893 9.62984 21.4563C9.62984 21.4549 9.62984 21.4549 9.62984 21.4549C9.66962 21.3384 9.7094 21.2204 9.75203 21.1039C9.75203 21.1025 9.75345 21.1011 9.75345 21.0997C9.79607 20.9817 9.83869 20.8638 9.88416 20.7445ZM14.9122 22.6156L14.5187 23.9014C15.803 24.0151 17.0121 23.9597 17.893 23.8403L18.3263 22.4252C17.4795 22.5986 16.3188 22.7279 14.9122 22.6156ZM18.5295 23.7323C18.7866 23.6769 18.987 23.6173 19.1177 23.5576L19.578 22.6043C19.3393 22.5673 19.1162 22.529 18.9088 22.4878L18.5295 23.7323ZM10.6855 21.2503L10.2408 22.7037C11.3433 23.3288 12.6561 23.6727 13.9362 23.8375L14.3283 22.5545C14.0598 22.5218 13.7856 22.4806 13.5028 22.4281C12.5495 22.2533 11.5038 21.7333 10.6855 21.2503ZM40.439 29.9311V24.4186H38.0109V30.7779C38.0109 32.1233 39.0978 33.2131 40.439 33.2131H41.0812V30.7523C40.7132 30.6614 40.439 30.3289 40.439 29.9311ZM50.3033 20.7303C48.9621 20.7303 47.8752 21.8214 47.8752 23.1669V29.9311C47.8752 30.3289 47.601 30.6614 47.2331 30.7523V33.2131H47.8752C49.2164 33.2131 50.3033 32.1233 50.3033 30.7779V24.0122C50.3033 23.5448 50.6812 23.1669 51.1472 23.1669H54.5599V20.7303H50.3033ZM40.439 10.4099H38.0109V17.0619H40.439V10.4099ZM23.3203 11.3149C23.4893 11.5096 23.6627 11.7241 23.8346 11.9571C23.6627 11.7255 23.4908 11.5081 23.3217 11.3135L23.3203 11.3149ZM23.2009 11.4328C23.1001 11.5337 22.9978 11.6346 22.8983 11.734C22.303 11.7042 21.425 10.049 21.111 9.09568C21.111 9.09426 21.1096 9.09426 21.1096 9.09426C21.6338 11.2879 21.1067 13.0624 21.1067 13.0624L22.5232 13.8169C22.9509 12.9914 23.1299 12.1191 23.2009 11.4328ZM24.0235 12.2171C24.0306 12.2256 24.0378 12.2356 24.0449 12.2455C24.0378 12.2356 24.0306 12.227 24.0235 12.2171ZM21.2545 18.8947C22.2675 19.0822 24.052 19.4317 25.7654 19.7727C25.7768 19.7116 25.8364 19.6718 25.8961 19.6846C25.9288 19.6917 25.9615 19.6974 25.9956 19.7045C26.4118 19.3152 26.9191 18.7313 27.2728 17.9513C27.2728 17.9513 25.6574 14.5173 24.0434 12.2455C23.6172 14.7162 21.7859 17.9825 21.2545 18.8947ZM20.3338 8.75044V8.75186C20.3708 8.76465 20.4077 8.77743 20.4432 8.79164C20.4077 8.77743 20.3708 8.76465 20.3338 8.75044ZM20.3338 8.75186C19.6306 8.50181 18.6815 8.33416 17.8219 8.74333C16.1696 9.52901 13.4602 13.6549 12.764 14.746C12.6561 14.9151 12.5964 15.0117 12.5964 15.0117C12.5964 15.0117 12.4245 17.4327 12.5964 17.7794C12.7413 18.0692 14.3681 17.8731 14.8909 17.8021C14.9563 16.3231 15.1495 14.2985 15.1609 14.1863C15.1665 14.1252 15.2205 14.0797 15.283 14.0854C15.3441 14.0925 15.3882 14.1465 15.3825 14.2076C15.3797 14.2417 15.0912 17.2466 15.0927 18.6261L15.0955 18.6872C15.0955 18.6872 15.3285 18.8804 16.0673 18.879C16.0218 18.6915 15.9977 18.5778 15.9977 18.5778C15.9977 18.5778 17.0462 18.592 18.1601 18.6261C18.3149 18.6247 18.4826 18.6318 18.6573 18.6446C19.4189 18.673 20.142 18.7128 20.5114 18.7654C20.6222 18.781 20.8268 18.8165 21.101 18.8662C21.0769 17.7325 20.9874 13.3807 20.9561 11.4939C20.9362 10.2934 20.6166 9.35426 20.3338 8.75186ZM40.1449 0.264249C40.1449 0.123594 40.0312 0.00993347 39.8906 0.00993347H38.5593C38.4187 0.00993347 38.3064 0.123594 38.3064 0.264249V0.978891H40.1449V0.264249ZM40.1449 1.43922H38.3064V2.50336H40.1449V1.43922ZM44.518 0.978891H41.9066C41.7475 0.978891 41.6196 1.10818 41.6196 1.2673V2.50336H43.0802V1.7873C43.0802 1.64807 43.1924 1.53441 43.3317 1.53441H44.5322C44.6998 1.53441 44.8334 1.38381 44.805 1.20905C44.7837 1.07266 44.6558 0.978891 44.518 0.978891ZM36.5433 0.978891H33.9333C33.7955 0.978891 33.6677 1.07266 33.6449 1.20905C33.6165 1.38381 33.7501 1.53441 33.9177 1.53441H35.1182C35.2575 1.53441 35.3711 1.64807 35.3711 1.7873V2.50336H36.8317V1.2673C36.8317 1.10818 36.7024 0.978891 36.5433 0.978891ZM28.9252 7.10236C28.9252 7.10236 29.2008 5.36477 29.1354 4.82915C29.0715 4.29352 26.6761 2.34992 25.575 2.51331C25.2014 2.5673 24.8106 2.77615 24.4583 3.0262C24.7467 3.28336 24.9996 3.53057 25.0067 3.61582C25.0223 3.81615 24.7069 4.40434 24.7069 4.40434L23.7039 3.65986C23.414 3.94117 23.2279 4.16281 23.2279 4.16281C23.2279 4.16281 25.136 5.56368 26.23 6.33941C26.409 6.46728 26.5681 6.57952 26.6917 6.66477C26.983 6.86509 27.5541 7.2217 28.1963 7.60815C29.4835 8.38246 31.062 9.27328 31.2893 9.26333C31.6289 9.24628 28.9252 7.10236 28.9252 7.10236Z" fill="#B9CDCA"/>
</g>
</g>
</g>
<path id="Vector_7" d="M39.9943 21.0187L38.9614 21.5259L38.4557 20.4887L39.49 19.9815L39.9943 21.0187ZM40.8482 18.0564H37.6018C37.5407 18.0564 37.491 18.1061 37.491 18.1672C37.491 18.2297 37.5407 18.2794 37.6018 18.2794H40.8482C40.9093 18.2794 40.9605 18.2297 40.9605 18.1672C40.9605 18.1061 40.9093 18.0564 40.8482 18.0564ZM40.8482 23.2009H37.6018C37.5407 23.2009 37.491 23.2507 37.491 23.3132C37.491 23.3743 37.5407 23.424 37.6018 23.424H40.8482C40.9093 23.424 40.9605 23.3743 40.9605 23.3132C40.9605 23.2507 40.9093 23.2009 40.8482 23.2009ZM42.1837 30.255C42.1226 30.255 42.0729 30.3047 42.0729 30.3673V33.6236C42.0729 33.6861 42.1226 33.7359 42.1837 33.7359C42.2448 33.7359 42.2945 33.6861 42.2945 33.6236V30.3673C42.2945 30.3047 42.2448 30.255 42.1837 30.255ZM46.1306 30.255C46.0695 30.255 46.0184 30.3047 46.0184 30.3673V33.6236C46.0184 33.6861 46.0695 33.7359 46.1306 33.7359C46.1917 33.7359 46.2414 33.6861 46.2414 33.6236V30.3673C46.2414 30.3047 46.1917 30.255 46.1306 30.255Z" fill="#8FBCA7"/>
<g id="Clip path group_4">
<mask id="mask3_0_30" style="mask-type:luminance" maskUnits="userSpaceOnUse" x="3" y="0" width="45" height="42">
<g id="caf65aedd4">
<path id="Vector_8" d="M3.81896 0.841129H47.8284V41.4635H3.81896V0.841129Z" fill="white"/>
</g>
</mask>
<g mask="url(#mask3_0_30)">
<g id="Group_4">
<path id="Vector_9" d="M9.86965 20.783C9.87391 20.7702 9.8796 20.7574 9.88386 20.746C9.88386 20.746 9.88386 20.746 9.88386 20.7446C9.87817 20.7574 9.87391 20.7702 9.86965 20.783ZM12.5961 15.0119C12.5961 15.0119 12.6558 14.9153 12.7637 14.7462C12.7041 14.8215 12.6472 14.9096 12.5961 15.0119ZM40.1446 0.979038H38.3061V1.43936H40.1446V0.979038ZM21.1007 18.8664C21.1491 18.8749 21.2016 18.8849 21.2542 18.8948C21.7856 17.9827 23.6183 14.7149 24.0446 12.2457C23.9749 12.1476 23.9067 12.0538 23.8385 11.9615C23.8371 11.9601 23.8357 11.9587 23.8357 11.9572C23.6624 11.7242 23.489 11.5097 23.32 11.3151C23.2802 11.3534 23.2404 11.3932 23.2006 11.433C23.1296 12.1192 22.9506 12.9915 22.5229 13.817L21.1064 13.0626C21.1064 13.0626 21.6335 11.2881 21.1093 9.09441H21.1079C21.0865 9.08162 21.0624 9.07026 21.0382 9.05747C21.0354 9.05605 21.0326 9.05463 21.0297 9.05321C21.007 9.04042 20.9828 9.02906 20.9587 9.01627C20.9544 9.01485 20.9501 9.01201 20.9445 9.01058C20.9217 8.9978 20.8962 8.98643 20.872 8.97365C20.8649 8.9708 20.8592 8.96796 20.8535 8.96512C20.828 8.95375 20.8024 8.94239 20.7768 8.9296C20.7697 8.92676 20.7626 8.92392 20.7555 8.92108C20.7299 8.90829 20.7029 8.89692 20.6745 8.88414C20.6688 8.88272 20.6617 8.87988 20.656 8.87703C20.6262 8.86425 20.5964 8.85146 20.5665 8.84009C20.5609 8.83725 20.5552 8.83583 20.5495 8.83299C20.5182 8.8202 20.4856 8.80742 20.4529 8.79463C20.4486 8.79321 20.4458 8.79179 20.4429 8.79179C20.4074 8.77758 20.3705 8.76479 20.3335 8.75059C20.6163 9.35299 20.9359 10.2935 20.9558 11.4941C20.9871 13.3808 21.0766 17.7326 21.1007 18.8664ZM27.4842 8.14961C27.5055 8.18228 27.541 8.20075 27.578 8.20075C27.5965 8.20075 27.6163 8.19649 27.6348 8.18512C27.6874 8.15387 27.7044 8.08425 27.6732 8.03168C27.6533 7.99901 27.4657 7.71912 26.8435 7.88819C26.7838 7.90381 26.7483 7.96491 26.7653 8.02458C26.7809 8.08425 26.842 8.11977 26.9017 8.10414C27.3478 7.98196 27.4771 8.14108 27.4842 8.14961ZM27.0736 8.29879C26.9628 8.43376 26.923 8.58294 26.9841 8.63266C27.0452 8.68239 27.183 8.61419 27.2938 8.48064C27.4032 8.34567 27.443 8.19649 27.3819 8.14676C27.3208 8.09704 27.183 8.16523 27.0736 8.29879ZM26.815 7.41791C27.5069 7.46622 27.8508 7.86829 27.855 7.87398C27.8778 7.90097 27.909 7.91518 27.9417 7.91518C27.9659 7.91518 27.9914 7.90666 28.0113 7.88961C28.0596 7.85125 28.0667 7.78021 28.0269 7.73332C28.0113 7.71343 27.6234 7.25027 26.8307 7.19486C26.7682 7.19201 26.7156 7.23748 26.7113 7.29857C26.7071 7.36108 26.7539 7.41365 26.815 7.41791ZM23.6638 7.60688C23.6638 7.60688 23.3569 7.28152 23.4862 6.43759C23.6382 5.44306 24.8032 5.33224 25.1371 5.75563C25.4838 6.1918 25.4284 6.68054 25.4284 6.68054L26.2297 6.33956C25.1357 5.56383 23.2276 4.16296 23.2276 4.16296C22.1109 5.88208 22.1919 8.04447 22.1919 8.04447L23.6638 7.60688ZM24.7066 4.40449C24.7066 4.40449 25.022 3.81629 25.0064 3.61597C24.9993 3.53072 24.7464 3.28351 24.458 3.02635C24.3159 3.12722 24.1795 3.2352 24.0531 3.34318C24.0517 3.3446 24.0502 3.34602 24.0488 3.34602C23.9877 3.39859 23.9281 3.45116 23.8712 3.50373C23.8698 3.50515 23.8684 3.50657 23.8655 3.50799C23.8087 3.56056 23.7547 3.6117 23.7036 3.66001L24.7066 4.40449ZM26.1302 9.43965C26.1118 10.0392 26.4201 10.2935 26.4343 10.3035C26.4414 10.3106 26.4499 10.3134 26.4584 10.3177C26.4726 10.3234 26.4883 10.3276 26.5025 10.3276C26.5351 10.3276 26.5664 10.3134 26.5891 10.2864C26.6176 10.2509 26.6218 10.2026 26.6019 10.1642C26.5948 10.1515 26.5849 10.1401 26.5735 10.1301C26.5636 10.1216 26.3377 9.92697 26.3533 9.44676C26.3547 9.38567 26.3064 9.3331 26.2453 9.33168C26.1814 9.32884 26.1317 9.37856 26.1302 9.43965ZM32.5052 25.919C32.194 25.9276 31.8701 25.4488 31.7721 25.2626C31.7436 25.2087 31.6769 25.1873 31.6215 25.2158C31.5675 25.2456 31.5462 25.3124 31.5746 25.3664C31.5902 25.3948 31.8957 25.9702 32.312 26.1108C32.3716 26.1307 32.4327 26.1421 32.4952 26.1421C32.5009 26.1421 32.508 26.1421 32.5137 26.1421C32.5748 26.1392 32.6231 26.0881 32.6203 26.0256C32.6203 26.0029 32.6103 25.9815 32.5975 25.9631C32.5762 25.9361 32.5435 25.9162 32.5052 25.919ZM40.3336 22.2251L38.9853 22.8857C38.4823 23.1315 37.8813 22.9383 37.6114 22.4552L37.6014 22.4595V23.2011H40.8479V21.6639C40.7555 21.8997 40.5793 22.1043 40.3336 22.2251ZM40.9601 18.1674H41.2372V17.062H37.2121V18.1674H37.4906C37.4906 18.1063 37.5403 18.0566 37.6014 18.0566H40.8479C40.909 18.0566 40.9601 18.1063 40.9601 18.1674ZM42.2942 33.6238H46.0194V30.3674H42.2942V33.6238ZM30.482 25.9503C30.5673 26.5001 30.4863 27.1622 30.2348 27.8811C29.6324 29.6102 24.9197 38.3151 24.9197 38.3151C24.9197 38.3151 24.6484 38.3691 24.2335 38.4174C23.5089 38.5027 22.3468 38.5709 21.4162 38.3151C19.9499 37.9117 19.2609 37.3647 19.2609 37.3647L22.1621 30.1628L17.2278 29.5548C17.8429 33.0058 18.63 37.5536 18.7579 38.9204C18.9739 41.2121 17.6384 41.428 15.699 41.3414C13.7597 41.2547 4.10847 39.1363 4.10705 39.1363C4.10705 39.1363 4.09285 39.0866 4.07296 38.9943C3.99623 38.6277 3.83143 37.5863 4.10705 36.2394C4.4523 34.5544 5.31328 33.0839 5.31328 33.0839L11.3899 34.7263C11.3899 34.7263 8.8467 28.4579 9.06266 23.9612C9.08823 23.437 9.21752 22.8147 9.41217 22.1455C9.51588 22.2293 9.62386 22.3103 9.73468 22.387L10.178 20.9379C10.0728 20.8711 9.97337 20.8057 9.88386 20.746C10.9295 17.967 12.5961 15.0119 12.5961 15.0119C12.5961 15.0119 12.4242 17.4328 12.5961 17.7795C12.741 18.0693 14.3678 17.8733 14.8906 17.8022C14.956 16.3232 15.1492 14.2986 15.1606 14.1864C15.1662 14.1253 15.2202 14.0799 15.2827 14.0855C15.3438 14.0926 15.3879 14.1466 15.3822 14.2077C15.3794 14.2418 15.0909 17.2467 15.0924 18.6263L15.0952 18.6874C15.0952 18.6874 15.3282 18.8806 16.067 18.8792C16.2517 19.635 16.7987 21.5914 17.5858 22.0887C17.7407 22.1853 18.0021 22.2776 18.3445 22.3643C18.5135 22.4069 18.7025 22.4481 18.9085 22.4879L18.5292 23.7325C18.7863 23.6771 18.9867 23.6174 19.1174 23.5577C19.1174 23.5577 26.9855 24.3136 28.6833 24.3931C29.0172 24.4088 29.3042 24.4812 29.5457 24.5977L28.9604 24.8847L29.6736 26.3467L30.482 25.9503ZM14.328 22.5547C14.0595 22.522 13.7853 22.4808 13.5025 22.4282C12.5492 22.2535 11.5035 21.7335 10.6852 21.2504L10.2405 22.7039C11.343 23.329 12.6558 23.6728 13.9359 23.8376L14.328 22.5547ZM18.326 22.4254C17.4792 22.5987 16.3185 22.728 14.9119 22.6158L14.5184 23.9016C15.8027 24.0152 17.0118 23.9598 17.8927 23.8405L18.326 22.4254ZM46.1302 30.2552C46.1913 30.2552 46.2411 30.3049 46.2411 30.3674V33.6238C46.2411 33.6863 46.1913 33.736 46.1302 33.736V34.0159H47.2328V29.9753H46.1302V30.2552ZM47.4984 3.38154H30.9509C30.8898 3.38154 30.84 3.43127 30.84 3.49236C30.84 3.55487 30.8898 3.6046 30.9509 3.6046H47.4984C47.5595 3.6046 47.6093 3.55487 47.6093 3.49236C47.6093 3.43127 47.5595 3.38154 47.4984 3.38154ZM41.0809 30.7524V34.0159H42.1834V33.736C42.1223 33.736 42.0726 33.6863 42.0726 33.6238V30.3674C42.0726 30.3049 42.1223 30.2552 42.1834 30.2552V29.9753H41.0809V30.7524ZM40.8479 18.2796H37.6014V19.5441L38.7522 18.98C39.2737 18.7243 39.9016 18.9403 40.1574 19.4631L40.2327 19.618L39.4896 19.9817L39.994 21.0188L38.9611 21.526L38.4553 20.4889L38.9625 21.5331L40.7399 20.6608L40.8152 20.8157C40.828 20.8412 40.8379 20.8668 40.8479 20.8924V18.2796ZM32.4498 21.2106C32.4981 21.2106 32.5421 21.1794 32.5563 21.1311V21.1297C32.5691 21.087 32.5535 21.0444 32.5236 21.0174C32.5109 21.006 32.4967 20.9961 32.4796 20.9918C32.0179 20.8611 31.316 20.7432 30.8031 20.6565C30.5701 20.6168 30.3684 20.5841 30.2476 20.5585C30.0359 20.5145 28.0909 20.1209 25.9953 19.7046C25.9612 19.6975 25.9285 19.6918 25.8958 19.6847C25.8361 19.672 25.7765 19.7117 25.7651 19.7728C25.7537 19.8325 25.7921 19.8922 25.8532 19.9035C27.9857 20.3283 29.9876 20.7318 30.2021 20.7773C30.3272 20.8029 30.5303 20.837 30.7662 20.8768C31.2734 20.962 31.9695 21.0785 32.4199 21.2064C32.4299 21.2092 32.4398 21.2106 32.4498 21.2106ZM33.2624 25.4686C32.7126 25.4203 32.5009 24.9344 32.4924 24.9117C32.4682 24.8549 32.4029 24.8279 32.3461 24.852C32.2892 24.8762 32.2622 24.9415 32.2864 24.9984C32.2963 25.0225 32.5194 25.5425 33.0962 25.6676C33.1431 25.6775 33.1914 25.686 33.2425 25.6903C33.2468 25.6917 33.2497 25.6917 33.2525 25.6917C33.3107 25.6917 33.3591 25.6477 33.3633 25.5894C33.3662 25.5596 33.3562 25.5326 33.3392 25.5113C33.3221 25.4871 33.2937 25.4715 33.2624 25.4686ZM33.9444 25.0097C33.5139 24.9231 33.3235 24.6631 33.2511 24.5665C33.2298 24.5366 33.2156 24.5182 33.1942 24.504C33.1431 24.4699 33.0749 24.4841 33.0408 24.5352C33.0095 24.5821 33.0181 24.6432 33.0578 24.6801C33.0607 24.6844 33.0664 24.6915 33.0721 24.6986C33.1445 24.7966 33.3534 25.0794 33.7938 25.203C33.8279 25.2129 33.8634 25.2214 33.9018 25.2285C33.9089 25.23 33.916 25.2314 33.9231 25.2314C33.9757 25.2314 34.0211 25.1944 34.0325 25.1405C34.0382 25.1135 34.0311 25.0879 34.0197 25.0666C34.0041 25.0382 33.9785 25.0168 33.9444 25.0097ZM41.2372 23.3134H40.9601C40.9601 23.3745 40.909 23.4242 40.8479 23.4242H37.6014C37.5403 23.4242 37.4906 23.3745 37.4906 23.3134H37.2121V24.4187H41.2386V23.3134H41.2372Z" fill="#286359"/>
</g>
</g>
</g>
</g>
</svg>
