<svg width="13" height="52" viewBox="0 0 13 52" fill="none" xmlns="http://www.w3.org/2000/svg">
<g id="Group 6">
<g id="Clip path group">
<mask id="mask0_0_185" style="mask-type:luminance" maskUnits="userSpaceOnUse" x="0" y="0" width="49" height="52">
<g id="62973c75a2">
<path id="Vector" d="M0.478271 0.246399H48.5464V51.3827H0.478271V0.246399Z" fill="white"/>
</g>
</mask>
<g mask="url(#mask0_0_185)">
<g id="Group">
<path id="Vector_2" d="M47.0893 4.3999L29.4606 2.05881V0.257053H4.09746V45.6539H0.557867C0.513922 45.6539 0.477966 45.6885 0.477966 45.7338C0.477966 45.7777 0.513922 45.8137 0.557867 45.8137H17.7098C17.6939 45.8656 17.6779 45.9175 17.6619 45.9681C17.6619 45.9695 17.6619 45.9708 17.6619 45.9708C17.6299 46.0747 17.5993 46.1785 17.5687 46.2784V46.2798C17.5554 46.3264 17.5421 46.3743 17.5287 46.4209C17.5261 46.4262 17.5247 46.4316 17.5234 46.4382C17.5101 46.4835 17.4981 46.5274 17.4848 46.5714C17.4848 46.5741 17.4848 46.5754 17.4835 46.578C17.4728 46.6193 17.4608 46.6593 17.4502 46.6992C17.4488 46.7059 17.4475 46.7125 17.4448 46.7192C17.4342 46.7578 17.4249 46.7964 17.4155 46.8337C17.4129 46.8417 17.4116 46.8497 17.4089 46.8564C17.3996 46.895 17.3902 46.9323 17.3823 46.9669C17.3503 47.0961 17.3263 47.2093 17.313 47.2972C17.3024 47.3651 17.297 47.4183 17.2984 47.4556C17.2997 47.4676 17.301 47.4783 17.3024 47.4876C17.3663 47.7686 17.9296 48.7034 18.3397 48.9085C18.4037 48.9404 18.5009 48.9777 18.618 49.0177C18.7206 49.0523 18.8404 49.0896 18.9669 49.1269C19.0069 49.1389 19.0482 49.1508 19.0895 49.1628C19.1294 49.1735 19.1694 49.1855 19.2093 49.1961C19.8139 49.3652 20.4797 49.5237 20.4797 49.5237C20.4797 49.5237 20.9791 49.1002 20.9285 48.8446C20.8766 48.5889 19.8685 47.6221 19.8685 47.6221C19.8685 47.6221 27.2952 50.396 28.5137 50.6556C29.7309 50.9153 30.7097 50.9539 31.3489 50.376C31.8389 49.9325 32.2331 49.4412 32.2837 48.8392C32.7298 48.7793 32.9908 48.6395 32.9908 48.6395C32.9908 48.6395 33.0787 48.3731 33.104 48.1081C33.1107 48.0309 33.112 47.9537 33.1053 47.8831C33.08 47.6381 32.1785 47.1027 31.6378 46.8271C31.6378 46.8257 31.6365 46.8244 31.6365 46.8231L47.0893 51.3721H48.5475V4.3999H47.0893ZM21.1083 44.1904C20.834 43.9839 20.4318 43.7003 20.1468 43.5698C19.6727 43.3514 18.8524 43.2236 18.8524 43.2236C18.8524 43.2236 18.7632 43.3128 18.6394 43.4912C18.6247 43.5125 18.6087 43.5365 18.5914 43.5618C18.4769 43.7363 18.3424 43.9786 18.2252 44.2862C18.2212 44.2956 18.2172 44.3062 18.2132 44.3155C18.2106 44.3235 18.2079 44.3315 18.2052 44.3395C18.2012 44.3502 18.1972 44.3608 18.1932 44.3728C18.1892 44.3808 18.1866 44.3888 18.1826 44.3981C18.1786 44.4101 18.1746 44.4207 18.1706 44.4327C18.1666 44.4434 18.1639 44.4527 18.16 44.462C18.156 44.474 18.1506 44.4873 18.1466 44.4993C18.1426 44.51 18.1386 44.5193 18.136 44.5299C18.1307 44.5432 18.1267 44.5566 18.1213 44.5699C18.1173 44.5805 18.1133 44.5912 18.1093 44.6018C18.1054 44.6165 18.1 44.6298 18.0947 44.6445C18.0907 44.6551 18.0867 44.6671 18.0827 44.6791C18.0787 44.6924 18.0734 44.707 18.0681 44.7204C18.0641 44.7337 18.0587 44.747 18.0548 44.7603C18.0494 44.7736 18.0454 44.7869 18.0401 44.8016C18.0361 44.8162 18.0308 44.8309 18.0255 44.8455C18.0215 44.8589 18.0161 44.8722 18.0121 44.8855C18.0068 44.9015 18.0015 44.9174 17.9948 44.9334C17.9908 44.9467 17.9868 44.9587 17.9828 44.972C17.9762 44.9907 17.9709 45.008 17.9642 45.0266C17.9602 45.0386 17.9562 45.0506 17.9522 45.0626C17.9456 45.0826 17.9389 45.1039 17.9309 45.1252C17.9282 45.1345 17.9242 45.1452 17.9216 45.1545C17.9123 45.1825 17.9029 45.2104 17.8936 45.2384C17.8923 45.241 17.8923 45.245 17.891 45.2477C17.8696 45.313 17.847 45.3795 17.8257 45.4475C17.8257 45.4488 17.8244 45.4515 17.8244 45.4528C17.8137 45.4834 17.8044 45.5154 17.7937 45.546C17.7924 45.5527 17.7897 45.558 17.7884 45.5646C17.7791 45.5926 17.7711 45.6206 17.7618 45.6472C17.7618 45.6499 17.7605 45.6512 17.7605 45.6525H5.68881V1.84707H27.8705V28.1157C26.696 29.3249 25.5587 30.7857 25.5587 30.7857C25.5587 30.7857 24.0539 32.7206 22.7769 34.4132V34.4145C22.6863 34.5344 22.5971 34.6529 22.5092 34.7701C22.5079 34.7714 22.5065 34.7727 22.5052 34.7741C22.4187 34.8913 22.3321 35.0058 22.2495 35.1176C22.2495 35.1176 22.2482 35.1176 22.2482 35.119C21.7355 35.8075 21.3134 36.3907 21.1269 36.6877C20.4478 37.765 20.3412 39.5841 21.0071 41.0183C21.4838 42.0437 23.8262 44.5992 24.2071 45.0107C24.1978 45.0187 24.1924 45.0293 24.1871 45.04L21.3067 43.9107C21.3067 43.9107 21.2268 44.0186 21.1083 44.1904Z" fill="#F2DDCC"/>
</g>
</g>
</g>
<g id="Clip path group_2">
<mask id="mask1_0_185" style="mask-type:luminance" maskUnits="userSpaceOnUse" x="0" y="0" width="48" height="52">
<g id="97ebfbe0d4">
<path id="Vector_3" d="M0.478271 0.246399H47.1708V51.3827H0.478271V0.246399Z" fill="white"/>
</g>
</mask>
<g mask="url(#mask1_0_185)">
<g id="Group_2">
<path id="Vector_4" d="M33.1053 47.8831C33.112 47.9537 33.1107 48.0309 33.104 48.1081C32.8989 48.1508 32.5913 48.2 32.2145 48.2173C32.068 47.702 31.8176 47.172 31.6378 46.8271C32.1785 47.1027 33.08 47.6381 33.1053 47.8831ZM36.2308 34.3599C36.3107 34.549 36.3773 34.7075 36.4252 34.8247L37.095 34.6915V34.3599C36.9898 34.32 36.9153 34.2201 36.9126 34.1003L36.9073 33.9151C36.9046 33.79 36.9832 33.6821 37.095 33.6422V33.533C36.9193 33.3279 36.8047 33.1774 36.8047 33.1774C36.8047 33.1774 36.5877 33.1734 36.2308 33.1641V34.3599ZM36.071 33.1601C35.9618 33.1574 35.8433 33.1548 35.7154 33.1521C35.8446 33.4504 35.9645 33.7314 36.071 33.9804V33.1601ZM37.2548 34.6596L37.9886 34.5131C37.9673 34.4864 37.9646 34.4478 37.9859 34.4185C37.9873 34.4185 37.9873 34.4185 37.9873 34.4185C37.9646 34.3999 37.9407 34.3812 37.9167 34.3626L37.2548 34.3772V34.6596ZM42.9358 33.5476C42.8852 33.6222 42.8306 33.7021 42.7746 33.7846L42.9358 33.7806V33.5476ZM32.0467 34.6928C32.0387 34.6582 32.032 34.6249 32.0227 34.589C31.5939 34.8926 30.944 35.0218 30.944 35.0218L28.3539 37.8849C28.3539 37.8849 30.2569 38.1246 32.0467 38.4229V34.6928ZM36.5384 28.9427C36.5291 28.9427 36.5198 28.9413 36.5118 28.9373C36.4225 29.0346 36.3253 29.1358 36.2308 29.2237V30.9468C36.4692 31.0081 36.6383 31.0494 36.7129 31.0667C36.7129 31.0667 36.8673 31.0893 37.095 31.124V28.6311C36.9432 28.6044 36.8207 28.5778 36.8207 28.5778C36.8207 28.5778 36.7342 28.687 36.6103 28.8268C36.625 28.8548 36.621 28.8894 36.5997 28.9147C36.5837 28.9333 36.561 28.9427 36.5384 28.9427ZM37.2548 28.6564V31.1493C37.9154 31.2545 38.9594 31.4356 39.1099 31.5501C39.3323 31.7192 40.3563 32.8485 40.4895 32.9377C40.5321 32.9657 40.6373 33.0043 40.7598 33.0456C40.7745 33.0043 40.8197 32.9816 40.861 32.9963L40.865 32.9976C40.9529 32.7752 41.0395 32.5608 41.1021 32.4077C41.17 32.2412 41.3924 31.9989 41.664 31.7565V25.0648L38.8529 24.4856C38.8835 24.5548 38.9008 24.6187 38.9021 24.6733C38.9141 25.2739 38.5692 26.3193 38.5692 26.3193C38.5692 26.3193 39.8463 27.8001 39.6292 27.8254C39.5147 27.8387 38.7956 27.3207 38.0419 26.7494L37.689 27.3407C37.689 27.3407 37.8035 28.5658 37.689 28.655C37.6357 28.6963 37.4453 28.683 37.2548 28.6564ZM32.2065 21.0272L36.071 21.8235V7.87956L32.2065 7.33491V21.0272ZM32.2065 38.4508C33.4143 38.6546 34.5422 38.885 34.9617 39.082C36.0204 39.5814 36.0204 40.6987 35.6409 41.3565C35.525 41.559 35.0842 42.1143 34.5302 42.7868L36.071 43.2156V37.4001C35.7767 37.4987 35.5503 37.5639 35.4211 37.5852C34.5835 37.7251 33.674 37.5759 33.3144 36.7782C33.2279 36.5838 33.1599 36.4347 33.108 36.3202C32.7045 36.4187 32.4209 36.444 32.3782 36.3415C32.289 36.1204 32.2557 35.8834 32.2065 35.5611V38.4508ZM37.2548 43.5445L41.664 44.7683V35.119C41.0954 35.4399 38.9075 36.3534 37.2548 36.9753V43.5445ZM47.0893 4.3999V51.3721L31.6365 46.8231C31.5646 46.6859 31.5047 46.578 31.4674 46.5141C31.47 46.5115 31.474 46.5115 31.4767 46.5088C31.5113 46.4822 31.5193 46.4329 31.4927 46.3969L31.482 46.3836C31.7817 46.0361 33.2958 44.2796 34.4184 42.9226L36.1296 43.398C36.1362 43.3993 36.1442 43.4007 36.1509 43.4007C36.1682 43.4007 36.1855 43.3953 36.1988 43.3834C36.2188 43.3687 36.2308 43.3447 36.2308 43.3208V37.3469C36.4851 37.2603 36.7781 37.1538 37.095 37.0353V43.6044C37.095 43.6404 37.119 43.6723 37.1536 43.6817L41.7226 44.9507C41.7293 44.9534 41.7373 44.9534 41.7439 44.9534C41.7612 44.9534 41.7785 44.9481 41.7919 44.9374C41.8118 44.9228 41.8238 44.8988 41.8238 44.8735V35.0071C42.0609 34.8007 42.3738 34.3679 42.6535 33.9604L42.9358 33.9551V34.4145L45.4233 35.2308V28.4513L42.9358 28.0824V29.6258C42.8585 29.5899 42.7773 29.5699 42.6934 29.5699C42.6495 29.5699 42.6135 29.6058 42.6135 29.6498C42.6135 29.6525 42.6148 29.6551 42.6148 29.6565C42.218 29.7244 41.9077 30.2917 41.9077 30.9841C41.9077 31.1652 41.929 31.3397 41.969 31.4968C41.9197 31.5368 41.8718 31.5767 41.8238 31.6167V24.9996C41.8238 24.9623 41.7972 24.929 41.7599 24.9223L38.7516 24.3018C38.2962 23.5987 36.9166 22.5386 36.2588 22.5173C35.9911 22.5093 35.6715 22.6145 35.3639 22.757C35.1801 22.8436 35.0003 22.9435 34.8392 23.0407C34.8392 23.0407 34.8379 23.042 34.8365 23.042C34.6115 23.1778 34.425 23.3084 34.3172 23.3869L32.1425 22.9381C32.1199 22.9328 32.0946 22.9395 32.076 22.9541C32.0573 22.9688 32.0467 22.9914 32.0467 23.0167V24.9943C32.0387 25.0062 32.028 25.0182 32.02 25.0315C31.5606 25.7267 31.482 26.5869 32.0467 27.2288V27.2674C32.0427 27.2648 32.0387 27.2621 32.0347 27.2581C32.028 27.2541 32.0214 27.2488 32.0134 27.2435C31.9748 27.2155 31.9361 27.1875 31.8962 27.1609C31.8922 27.1569 31.8869 27.1542 31.8815 27.1502C31.8403 27.1223 31.799 27.0943 31.7564 27.0677C31.7537 27.0663 31.7497 27.0637 31.747 27.0623C31.7031 27.033 31.6591 27.0064 31.6152 26.9798C31.6139 26.9785 31.6125 26.9785 31.6099 26.9771C31.5646 26.9505 31.518 26.9239 31.4714 26.8986C30.9347 26.6029 30.3874 26.4471 29.9013 26.551C29.4073 26.6575 28.6309 27.334 27.8705 28.1157V1.84707H5.68881V45.6539H17.7604C17.7604 45.6512 17.7618 45.6499 17.7618 45.6485C17.7604 45.6525 17.7591 45.6552 17.7578 45.6592C17.7418 45.7111 17.7258 45.7617 17.7098 45.8137H0.557867C0.513922 45.8137 0.477966 45.7777 0.477966 45.7338C0.477966 45.6885 0.513922 45.6539 0.557867 45.6539H4.09746V0.257053H29.4605V2.05881L47.0893 4.3999ZM36.2308 7.81032C36.2308 7.77037 36.2015 7.73707 36.1615 7.73175L32.1385 7.16312C32.1146 7.16046 32.0919 7.16712 32.0746 7.18177C32.0573 7.19775 32.0467 7.21905 32.0467 7.24302V21.0924C32.0467 21.1297 32.0733 21.163 32.1106 21.171L36.1349 22.0006C36.1402 22.002 36.1456 22.002 36.1509 22.002C36.1695 22.002 36.1868 21.9967 36.2015 21.9847C36.2201 21.9687 36.2308 21.946 36.2308 21.9221V7.81032ZM41.8238 8.6C41.8238 8.56005 41.7945 8.52676 41.7546 8.5201L37.1869 7.87557C37.163 7.8729 37.1403 7.87956 37.123 7.89421C37.1057 7.91019 37.095 7.9315 37.095 7.95547V22.1338C37.095 22.1711 37.1217 22.2044 37.159 22.2124L41.7279 23.1539C41.7333 23.1552 41.7386 23.1565 41.7439 23.1565C41.7626 23.1565 41.7799 23.1499 41.7945 23.1379C41.8132 23.1233 41.8238 23.1006 41.8238 23.0766V8.6ZM42.7334 32.5129C42.7906 32.457 42.8465 32.405 42.8985 32.3571C42.8665 32.3691 42.8332 32.3797 42.7999 32.3851C42.776 32.4317 42.7533 32.4743 42.7334 32.5129ZM32.2065 24.7998C32.7458 24.2285 33.8005 23.6719 34.1201 23.5094L32.2065 23.1139V24.7998ZM37.2548 22.0686L41.664 22.9781V8.66925L37.2548 8.04735V22.0686ZM36.071 29.3595C35.9924 29.4181 35.9232 29.4567 35.8726 29.458C35.6209 29.4713 34.8552 28.7309 34.8552 28.7309L33.931 29.3528C33.9936 29.4647 34.0602 29.5872 34.1281 29.719C34.1307 29.723 34.1321 29.7257 34.1334 29.7284C34.2 29.8562 34.2692 29.9934 34.3398 30.1372C34.3451 30.1465 34.3491 30.1558 34.3545 30.1651C34.3744 30.2051 34.3931 30.2451 34.413 30.2863C34.417 30.293 34.421 30.301 34.425 30.309C34.449 30.3582 34.473 30.4075 34.4969 30.4568V30.4581C34.5089 30.4808 34.5196 30.5047 34.5316 30.5287C35.1428 30.6738 35.6781 30.8083 36.071 30.9069V29.3595ZM29.7096 42.5298L28.7148 42.6696C28.7188 42.6962 28.7095 42.7242 28.6868 42.7428C28.6855 42.7442 28.6842 42.7442 28.6828 42.7455L28.9771 43.1583C29.0104 43.1357 29.0544 43.141 29.0824 43.1703L29.7295 42.5724C29.7282 42.5697 29.7256 42.5697 29.7242 42.5684C29.7149 42.5564 29.7109 42.5431 29.7096 42.5298ZM21.1083 44.1904C20.834 43.9839 20.4318 43.7003 20.1468 43.5698C19.6727 43.3514 18.8524 43.2236 18.8524 43.2236C18.8524 43.2236 19.2559 43.2861 19.6594 43.3993C19.4583 43.643 19.1614 44.0412 18.9936 44.4394C18.7246 45.0799 17.9975 47.3091 17.9975 47.3091C17.9975 47.3091 18.3783 47.987 18.6473 48.2293C18.8737 48.4344 20.4025 48.8898 20.8925 49.031C20.7834 49.2667 20.4797 49.5237 20.4797 49.5237C20.4797 49.5237 20.9791 49.1002 20.9285 48.8446C20.8766 48.5889 19.8685 47.6221 19.8685 47.6221C19.8685 47.6221 19.8485 46.9043 20.0882 46.0654C20.26 45.4661 20.8087 44.6218 21.1083 44.1904ZM17.9522 45.0626C17.9456 45.0826 17.9376 45.1039 17.9309 45.1252C17.9389 45.1039 17.9456 45.0826 17.9522 45.0626ZM18.0547 44.7603C18.0494 44.7736 18.0454 44.7883 18.0401 44.8016C18.0454 44.7869 18.0494 44.7736 18.0547 44.7603ZM18.0827 44.6791C18.0787 44.6924 18.0734 44.707 18.0681 44.7204C18.0734 44.707 18.0774 44.6924 18.0827 44.6791Z" fill="#E1824F"/>
</g>
</g>
</g>
</g>
</svg>
