<svg width="24" height="24" viewBox="0 0 24 24" fill="none" xmlns="http://www.w3.org/2000/svg">
<g id="setting-102 1" opacity="0.4" clip-path="url(#clip0_0_209)">
<path id="Vector" d="M12.303 1.94139e-05H15.697C16.0977 -0.00189045 16.4854 0.142064 16.7877 0.405016C17.09 0.667967 17.2863 1.03195 17.34 1.42902L17.476 2.47902C17.4838 2.53905 17.5052 2.59652 17.5384 2.6471C17.5717 2.69768 17.616 2.74005 17.668 2.77102L18.56 3.29902C18.6132 3.33046 18.6729 3.34917 18.7345 3.35368C18.796 3.35819 18.8578 3.34838 18.915 3.32502L20.013 2.87502C20.3819 2.72331 20.793 2.70901 21.1716 2.83471C21.5502 2.96041 21.8711 3.21777 22.076 3.56002L23.773 6.42102C24.2 7.14102 24.009 8.06102 23.335 8.55902L22.276 9.34202C22.2258 9.37917 22.185 9.42755 22.1569 9.48329C22.1288 9.53903 22.1141 9.60058 22.114 9.66302V10.337C22.1141 10.3995 22.1288 10.461 22.1569 10.5167C22.185 10.5725 22.2258 10.6209 22.276 10.658L23.336 11.441C24.009 11.938 24.2 12.858 23.773 13.579L22.076 16.439C21.8711 16.7813 21.5502 17.0386 21.1716 17.1643C20.793 17.29 20.3819 17.2757 20.013 17.124L18.915 16.674C18.8578 16.6508 18.7959 16.6412 18.7343 16.6458C18.6727 16.6505 18.6131 16.6694 18.56 16.701L17.668 17.229C17.6159 17.2601 17.5715 17.3026 17.5382 17.3534C17.505 17.4041 17.4837 17.4618 17.476 17.522L17.34 18.572C17.2861 18.9689 17.0897 19.3326 16.7874 19.5954C16.4851 19.8581 16.0975 20.002 15.697 20H12.303C11.9023 20.0019 11.5146 19.858 11.2123 19.595C10.91 19.3321 10.7137 18.9681 10.66 18.571L10.524 17.521C10.5162 17.461 10.4948 17.4035 10.4616 17.3529C10.4283 17.3024 10.384 17.26 10.332 17.229L9.44001 16.701C9.38686 16.6696 9.32715 16.6509 9.26556 16.6464C9.20397 16.6418 9.14217 16.6517 9.08501 16.675L7.98701 17.125C7.61809 17.2767 7.20698 17.291 6.8284 17.1653C6.44983 17.0396 6.12892 16.7823 5.92401 16.44L4.22701 13.579C4.02142 13.2319 3.95238 12.8207 4.03335 12.4255C4.11432 12.0303 4.33949 11.6793 4.66501 11.441L5.72401 10.658C5.77419 10.6209 5.81498 10.5725 5.84311 10.5167C5.87124 10.461 5.88593 10.3995 5.88601 10.337V9.66302C5.88593 9.60058 5.87124 9.53903 5.84311 9.48329C5.81498 9.42755 5.77419 9.37917 5.72401 9.34202L4.66401 8.55902C4.33865 8.32057 4.11368 7.96956 4.0329 7.57435C3.95212 7.17914 4.02131 6.76801 4.22701 6.42102L5.92401 3.56102C6.12892 3.21877 6.44983 2.96141 6.8284 2.83571C7.20698 2.71001 7.61809 2.72431 7.98701 2.87602L9.08501 3.32602C9.14225 3.34923 9.20409 3.35888 9.26568 3.35419C9.32727 3.34951 9.38694 3.33062 9.44001 3.29902L10.332 2.77102C10.3841 2.73995 10.4285 2.69742 10.4618 2.64665C10.4951 2.59589 10.5163 2.53822 10.524 2.47802L10.66 1.42802C10.7139 1.03113 10.9103 0.667388 11.2126 0.40464C11.5149 0.141892 11.9025 -0.00192259 12.303 1.94139e-05ZM12.327 3.06302C12.2916 3.33109 12.1954 3.58753 12.0458 3.81281C11.8963 4.03809 11.6973 4.22627 11.464 4.36302L10.252 5.07702C10.0133 5.21703 9.74548 5.30023 9.46942 5.32017C9.19336 5.34011 8.91641 5.29626 8.66001 5.19202L7.83201 4.85602C7.74353 4.82 7.64508 4.81684 7.55448 4.8471C7.46387 4.87737 7.38708 4.93906 7.33801 5.02102L6.18701 6.94702C6.13587 7.03254 6.1185 7.13407 6.13829 7.23173C6.15808 7.32939 6.21361 7.41615 6.29401 7.47502L7.06901 8.04402C7.52701 8.37902 7.79601 8.90902 7.79601 9.47402V10.526C7.79601 11.091 7.52601 11.621 7.06901 11.956L6.29401 12.525C6.21361 12.5839 6.15808 12.6706 6.13829 12.7683C6.1185 12.866 6.13587 12.9675 6.18701 13.053L7.33701 14.979C7.38611 15.0612 7.46307 15.1231 7.5539 15.1533C7.64473 15.1836 7.74341 15.1803 7.83201 15.144L8.66001 14.808C8.91641 14.7038 9.19336 14.6599 9.46942 14.6799C9.74548 14.6998 10.0133 14.783 10.252 14.923L11.464 15.636C11.938 15.916 12.256 16.395 12.327 16.937L12.421 17.652C12.4336 17.7482 12.4807 17.8365 12.5536 17.9005C12.6264 17.9645 12.72 17.9999 12.817 18H15.183C15.28 17.9999 15.3736 17.9645 15.4465 17.9005C15.5193 17.8365 15.5664 17.7482 15.579 17.652L15.673 16.937C15.743 16.395 16.062 15.915 16.536 15.637L17.748 14.923C17.9868 14.783 18.2545 14.6998 18.5306 14.6799C18.8067 14.6599 19.0836 14.7038 19.34 14.808L20.168 15.144C20.2565 15.18 20.3549 15.1832 20.4455 15.1529C20.5362 15.1227 20.6129 15.061 20.662 14.979L21.813 13.053C21.8641 12.9675 21.8815 12.866 21.8617 12.7683C21.8419 12.6706 21.7864 12.5839 21.706 12.525L20.931 11.956C20.706 11.7916 20.5228 11.5764 20.3965 11.3279C20.2702 11.0795 20.2043 10.8047 20.204 10.526V9.47402C20.204 8.90902 20.474 8.37902 20.931 8.04402L21.706 7.47502C21.7864 7.41615 21.8419 7.32939 21.8617 7.23173C21.8815 7.13407 21.8641 7.03254 21.813 6.94702L20.663 5.02102C20.6139 4.93883 20.5369 4.87697 20.4461 4.8467C20.3553 4.81642 20.2566 4.81973 20.168 4.85602L19.34 5.19202C18.82 5.40402 18.231 5.36102 17.748 5.07702L16.536 4.36402C16.3026 4.22717 16.1035 4.03883 15.954 3.81337C15.8044 3.5879 15.7083 3.33126 15.673 3.06302L15.579 2.34802C15.5664 2.25187 15.5193 2.16357 15.4465 2.09955C15.3736 2.03554 15.28 2.00017 15.183 2.00002H12.817C12.72 2.00017 12.6264 2.03554 12.5536 2.09955C12.4807 2.16357 12.4336 2.25187 12.421 2.34802L12.327 3.06302ZM18 10C18 10.2652 17.8947 10.5196 17.7071 10.7071C17.5196 10.8947 17.2652 11 17 11C16.7348 11 16.4804 10.8947 16.2929 10.7071C16.1054 10.5196 16 10.2652 16 10C16 9.60446 15.8827 9.21778 15.6629 8.88888C15.4432 8.55998 15.1308 8.30363 14.7654 8.15226C14.3999 8.00088 13.9978 7.96128 13.6098 8.03845C13.2219 8.11562 12.8655 8.3061 12.5858 8.5858C12.3061 8.86551 12.1156 9.22188 12.0384 9.60984C11.9613 9.9978 12.0009 10.3999 12.1523 10.7654C12.3036 11.1308 12.56 11.4432 12.8889 11.663C13.2178 11.8827 13.6044 12 14 12C14.2652 12 14.5196 12.1054 14.7071 12.2929C14.8947 12.4804 15 12.7348 15 13C15 13.2652 14.8947 13.5196 14.7071 13.7071C14.5196 13.8947 14.2652 14 14 14C13.2089 14 12.4355 13.7654 11.7777 13.3259C11.1199 12.8864 10.6072 12.2617 10.3045 11.5308C10.0017 10.7998 9.92253 9.99558 10.0769 9.21966C10.2312 8.44373 10.6122 7.731 11.1716 7.17159C11.731 6.61218 12.4437 6.23122 13.2196 6.07688C13.9956 5.92254 14.7998 6.00175 15.5307 6.3045C16.2616 6.60725 16.8864 7.11994 17.3259 7.77774C17.7654 8.43553 18 9.20889 18 10Z" fill="black" fill-opacity="0.3"/>
<path id="Vector_2" d="M10.303 2.00002H13.697C14.0977 1.99811 14.4854 2.14206 14.7877 2.40502C15.09 2.66797 15.2863 3.03195 15.34 3.42902L15.476 4.47902C15.4838 4.53905 15.5052 4.59652 15.5384 4.6471C15.5717 4.69768 15.616 4.74005 15.668 4.77102L16.56 5.29902C16.6132 5.33046 16.6729 5.34917 16.7345 5.35368C16.796 5.35819 16.8578 5.34838 16.915 5.32502L18.013 4.87502C18.3819 4.72331 18.793 4.70901 19.1716 4.83471C19.5502 4.96041 19.8711 5.21777 20.076 5.56002L21.773 8.42102C22.2 9.14102 22.009 10.061 21.335 10.559L20.276 11.342C20.2258 11.3792 20.185 11.4275 20.1569 11.4833C20.1288 11.539 20.1141 11.6006 20.114 11.663V12.337C20.1141 12.3995 20.1288 12.461 20.1569 12.5167C20.185 12.5725 20.2258 12.6209 20.276 12.658L21.336 13.441C22.009 13.938 22.2 14.858 21.773 15.579L20.076 18.439C19.8711 18.7813 19.5502 19.0386 19.1716 19.1643C18.793 19.29 18.3819 19.2757 18.013 19.124L16.915 18.674C16.8578 18.6508 16.7959 18.6412 16.7343 18.6458C16.6727 18.6505 16.6131 18.6694 16.56 18.701L15.668 19.229C15.6159 19.2601 15.5715 19.3026 15.5382 19.3534C15.505 19.4041 15.4837 19.4618 15.476 19.522L15.34 20.572C15.2861 20.9689 15.0897 21.3326 14.7874 21.5954C14.4851 21.8581 14.0975 22.002 13.697 22H10.303C9.90233 22.0019 9.51465 21.858 9.21232 21.595C8.90999 21.3321 8.71367 20.9681 8.66001 20.571L8.52401 19.521C8.51619 19.461 8.49484 19.4035 8.46159 19.3529C8.42833 19.3024 8.38402 19.26 8.33201 19.229L7.44001 18.701C7.38686 18.6696 7.32715 18.6509 7.26556 18.6464C7.20397 18.6418 7.14217 18.6517 7.08501 18.675L5.98701 19.125C5.61809 19.2767 5.20698 19.291 4.8284 19.1653C4.44983 19.0396 4.12892 18.7823 3.92401 18.44L2.22701 15.579C2.02142 15.2319 1.95238 14.8207 2.03335 14.4255C2.11432 14.0303 2.33949 13.6793 2.66501 13.441L3.72401 12.658C3.77419 12.6209 3.81498 12.5725 3.84311 12.5167C3.87124 12.461 3.88593 12.3995 3.88601 12.337V11.663C3.88593 11.6006 3.87124 11.539 3.84311 11.4833C3.81498 11.4275 3.77419 11.3792 3.72401 11.342L2.66401 10.559C2.33865 10.3206 2.11368 9.96956 2.0329 9.57435C1.95212 9.17914 2.02131 8.76801 2.22701 8.42102L3.92401 5.56102C4.12892 5.21877 4.44983 4.96141 4.8284 4.83571C5.20698 4.71001 5.61809 4.72431 5.98701 4.87602L7.08501 5.32602C7.14225 5.34923 7.20409 5.35888 7.26568 5.35419C7.32727 5.34951 7.38694 5.33062 7.44001 5.29902L8.33201 4.77102C8.38414 4.73995 8.42852 4.69742 8.46179 4.64665C8.49505 4.59589 8.51633 4.53822 8.52401 4.47802L8.66001 3.42802C8.7139 3.03113 8.91031 2.66739 9.21262 2.40464C9.51492 2.14189 9.90248 1.99808 10.303 2.00002ZM10.327 5.06302C10.2916 5.33109 10.1954 5.58753 10.0458 5.81281C9.89628 6.03809 9.69729 6.22627 9.46401 6.36302L8.25201 7.07702C8.01325 7.21703 7.74548 7.30023 7.46942 7.32017C7.19336 7.34011 6.91641 7.29626 6.66001 7.19202L5.83201 6.85602C5.74353 6.82 5.64508 6.81684 5.55448 6.8471C5.46387 6.87737 5.38708 6.93906 5.33801 7.02102L4.18701 8.94702C4.13587 9.03254 4.1185 9.13407 4.13829 9.23173C4.15808 9.32939 4.21361 9.41615 4.29401 9.47502L5.06901 10.044C5.52701 10.379 5.79601 10.909 5.79601 11.474V12.526C5.79601 13.091 5.52601 13.621 5.06901 13.956L4.29401 14.525C4.21361 14.5839 4.15808 14.6706 4.13829 14.7683C4.1185 14.866 4.13587 14.9675 4.18701 15.053L5.33701 16.979C5.38611 17.0612 5.46307 17.1231 5.5539 17.1533C5.64473 17.1836 5.74341 17.1803 5.83201 17.144L6.66001 16.808C6.91641 16.7038 7.19336 16.6599 7.46942 16.6799C7.74548 16.6998 8.01325 16.783 8.25201 16.923L9.46401 17.636C9.93801 17.916 10.256 18.395 10.327 18.937L10.421 19.652C10.4336 19.7482 10.4807 19.8365 10.5536 19.9005C10.6264 19.9645 10.72 19.9999 10.817 20H13.183C13.28 19.9999 13.3736 19.9645 13.4465 19.9005C13.5193 19.8365 13.5664 19.7482 13.579 19.652L13.673 18.937C13.743 18.395 14.062 17.915 14.536 17.637L15.748 16.923C15.9868 16.783 16.2545 16.6998 16.5306 16.6799C16.8067 16.6599 17.0836 16.7038 17.34 16.808L18.168 17.144C18.2565 17.18 18.3549 17.1832 18.4455 17.1529C18.5362 17.1227 18.6129 17.061 18.662 16.979L19.813 15.053C19.8641 14.9675 19.8815 14.866 19.8617 14.7683C19.8419 14.6706 19.7864 14.5839 19.706 14.525L18.931 13.956C18.706 13.7916 18.5228 13.5764 18.3965 13.3279C18.2702 13.0795 18.2043 12.8047 18.204 12.526V11.474C18.204 10.909 18.474 10.379 18.931 10.044L19.706 9.47502C19.7864 9.41615 19.8419 9.32939 19.8617 9.23173C19.8815 9.13407 19.8641 9.03254 19.813 8.94702L18.663 7.02102C18.6139 6.93883 18.5369 6.87697 18.4461 6.8467C18.3553 6.81642 18.2566 6.81973 18.168 6.85602L17.34 7.19202C16.82 7.40402 16.231 7.36102 15.748 7.07702L14.536 6.36402C14.3026 6.22717 14.1035 6.03883 13.954 5.81337C13.8044 5.5879 13.7083 5.33126 13.673 5.06302L13.579 4.34802C13.5664 4.25187 13.5193 4.16357 13.4465 4.09955C13.3736 4.03554 13.28 4.00017 13.183 4.00002H10.817C10.72 4.00017 10.6264 4.03554 10.5536 4.09955C10.4807 4.16357 10.4336 4.25187 10.421 4.34802L10.327 5.06302ZM16 12C16 12.2652 15.8947 12.5196 15.7071 12.7071C15.5196 12.8947 15.2652 13 15 13C14.7348 13 14.4804 12.8947 14.2929 12.7071C14.1054 12.5196 14 12.2652 14 12C14 11.6045 13.8827 11.2178 13.6629 10.8889C13.4432 10.56 13.1308 10.3036 12.7654 10.1523C12.3999 10.0009 11.9978 9.96128 11.6098 10.0384C11.2219 10.1156 10.8655 10.3061 10.5858 10.5858C10.3061 10.8655 10.1156 11.2219 10.0384 11.6098C9.96127 11.9978 10.0009 12.3999 10.1523 12.7654C10.3036 13.1308 10.56 13.4432 10.8889 13.663C11.2178 13.8827 11.6044 14 12 14C12.2652 14 12.5196 14.1054 12.7071 14.2929C12.8947 14.4804 13 14.7348 13 15C13 15.2652 12.8947 15.5196 12.7071 15.7071C12.5196 15.8947 12.2652 16 12 16C11.2089 16 10.4355 15.7654 9.77773 15.3259C9.11993 14.8864 8.60724 14.2617 8.30449 13.5308C8.00174 12.7998 7.92253 11.9956 8.07687 11.2197C8.23121 10.4437 8.61217 9.731 9.17158 9.17159C9.73099 8.61218 10.4437 8.23122 11.2196 8.07688C11.9956 7.92254 12.7998 8.00175 13.5307 8.3045C14.2616 8.60725 14.8864 9.11994 15.3259 9.77774C15.7654 10.4355 16 11.2089 16 12Z" fill="black"/>
</g>
<defs>
<clipPath id="clip0_0_209">
<rect width="24" height="24" fill="white"/>
</clipPath>
</defs>
</svg>
