<svg width="18" height="18" viewBox="0 0 18 18" fill="none" xmlns="http://www.w3.org/2000/svg">
<g id="Shield Done">
<g id="Iconly/Bold/Shield-Done">
<g id="Shield-Done">
<path id="Vector" d="M9.42807 1.57467L14.4061 3.24489C14.9634 3.43096 15.3401 3.94283 15.3432 4.51649L15.3749 9.49698C15.3847 11.0069 14.8343 12.4712 13.8263 13.6185C13.3627 14.145 12.7684 14.5973 12.0096 15.0018L9.33369 16.4323C9.24988 16.4764 9.15776 16.4992 9.06489 16.5C8.97202 16.5007 8.87915 16.4786 8.79609 16.4352L6.09526 15.0379C5.32813 14.64 4.72862 14.1943 4.26048 13.6751C3.23587 12.5395 2.66656 11.0819 2.65675 9.56979L2.62502 4.59297C2.62202 4.01858 2.99199 3.50303 3.5462 3.30961L8.50539 1.57982C8.79986 1.47539 9.12831 1.47318 9.42807 1.57467ZM11.8086 6.91399C11.5859 6.69997 11.2272 6.70145 11.0075 6.9184L8.48108 9.40865L7.44666 8.41432C7.22392 8.2003 6.86602 8.20251 6.64555 8.41947C6.42583 8.63642 6.42809 8.98503 6.65083 9.19905L8.0877 10.5817C8.19945 10.6891 8.34442 10.742 8.48939 10.7406C8.63436 10.7398 8.77857 10.6854 8.88881 10.5765L11.8131 7.69357C12.0329 7.47661 12.0306 7.12801 11.8086 6.91399Z" fill="#0066FF"/>
</g>
</g>
</g>
</svg>
