<svg width="24" height="24" viewBox="0 0 24 24" fill="none" xmlns="http://www.w3.org/2000/svg">
<g id="user-121" opacity="0.4" clip-path="url(#clip0_0_206)">
<path id="Vector" opacity="0.3" d="M24.2607 20.6596C24.2608 20.6748 24.263 20.6895 24.263 20.7047H24.2561C24.2208 21.2103 23.8038 21.6108 23.2892 21.6108C22.7746 21.6108 22.3577 21.2103 22.3223 20.7047H22.3055C22.3057 20.6805 22.3091 20.657 22.3091 20.6327C22.3091 18.6673 21.5288 16.8876 20.2667 15.5838L20.2685 15.582C20.0947 15.4119 19.9862 15.1753 19.9862 14.9129C19.9862 14.3953 20.4058 13.9756 20.9234 13.9756C21.1987 13.9756 21.4438 14.0965 21.6153 14.2854C23.2168 15.9053 24.22 18.1188 24.2561 20.569C24.2577 20.5918 24.263 20.6137 24.263 20.637C24.263 20.6447 24.2609 20.6519 24.2607 20.6596ZM15.1315 13.4957C14.868 13.4957 14.6099 13.4742 14.3549 13.4425C10.7571 13.833 7.95506 16.9011 7.9541 20.6308C7.9541 20.6329 7.95472 20.6349 7.95472 20.637C7.95472 20.6381 7.95439 20.6392 7.95439 20.6403C7.95496 20.6619 7.95741 20.683 7.9576 20.7047H7.94789C7.91246 21.2103 7.49548 21.6107 6.98091 21.6107C6.46627 21.6107 6.04936 21.2103 6.01398 20.7047H6C6.00005 16.9519 8.26567 13.7311 11.5022 12.3269C9.91894 11.1935 8.88364 9.34344 8.88364 7.24781C8.88364 3.79722 11.6809 1 15.1315 1C18.5821 1 21.3794 3.79722 21.3794 7.24781C21.3794 10.6984 18.5821 13.4957 15.1315 13.4957ZM15.1315 2.91383C12.7426 2.91383 10.8061 4.85037 10.8061 7.23927C10.8061 9.62817 12.7426 11.5647 15.1315 11.5647C17.5204 11.5647 19.457 9.62817 19.457 7.23927C19.457 4.85037 17.5204 2.91383 15.1315 2.91383Z" fill="black"/>
<path id="Vector_2" d="M21.1292 21.3542C21.1293 21.3694 21.1315 21.3841 21.1315 21.3993H21.1246C21.0893 21.9049 20.6723 22.3054 20.1577 22.3054C19.6431 22.3054 19.2262 21.9049 19.1908 21.3993H19.174C19.1742 21.3751 19.1776 21.3516 19.1776 21.3273C19.1776 19.3619 18.3973 17.5822 17.1352 16.2784L17.137 16.2766C16.9632 16.1065 16.8547 15.8699 16.8547 15.6075C16.8547 15.0899 17.2743 14.6702 17.7919 14.6702C18.0672 14.6702 18.3123 14.7911 18.4838 14.98C20.0853 16.5999 21.0885 18.8134 21.1246 21.2636C21.1262 21.2864 21.1315 21.3083 21.1315 21.3316C21.1315 21.3394 21.1294 21.3465 21.1292 21.3542ZM12 14.1904C11.7365 14.1904 11.4784 14.1688 11.2234 14.1371C7.62556 14.5276 4.82356 17.5957 4.8226 21.3254C4.8226 21.3275 4.82322 21.3295 4.82322 21.3316C4.82322 21.3327 4.82289 21.3338 4.82289 21.3349C4.82346 21.3565 4.82591 21.3776 4.8261 21.3993H4.81639C4.78096 21.9049 4.36398 22.3053 3.84941 22.3053C3.33477 22.3053 2.91786 21.9049 2.88248 21.3993H2.8685C2.86855 17.6465 5.13417 14.4257 8.37071 13.0216C6.78744 11.8881 5.75214 10.038 5.75214 7.94242C5.75214 4.49183 8.54941 1.69461 12 1.69461C15.4506 1.69461 18.2479 4.49183 18.2479 7.94242C18.2479 11.393 15.4506 14.1904 12 14.1904ZM12 3.60844C9.61112 3.60844 7.67458 5.54498 7.67458 7.93388C7.67458 10.3228 9.61112 12.2593 12 12.2593C14.3889 12.2593 16.3255 10.3228 16.3255 7.93388C16.3255 5.54498 14.3889 3.60844 12 3.60844Z" fill="black"/>
</g>
<defs>
<clipPath id="clip0_0_206">
<rect width="24" height="24" fill="white"/>
</clipPath>
</defs>
</svg>
